<svg version="1.1" id="Layer_1" xmlns="http://www.w3.org/2000/svg" xmlns:xlink="http://www.w3.org/1999/xlink" x="0px" y="0px" viewBox="0 0 500 500" style="width: 188px;" xml:space="preserve" data-imageid="family-meal-8" imageName="Family Meal" class="illustrations_image">
<style type="text/css">
	.st0_family-meal-8{fill:#725858;}
	.st1_family-meal-8{fill:#093F68;}
	.st2_family-meal-8{fill:#68E1FD;}
	.st3_family-meal-8{fill:#FFFFFF;}
	.st4_family-meal-8{fill:#FFC9B0;}
	.st5_family-meal-8{fill:#FFBC0E;}
</style>
<g id="character-1_family-meal-8">
	<path class="st0_family-meal-8" d="M114.5,139.2c23-0.1,41.8,18.5,41.9,41.5c0,0.5,0,1,0,1.6c-0.3,10.7-6.5,18.3-8.7,28.2&#10;&#9;&#9;c-1.8,8.1-1,18.6,1.7,26.3c2.5,7.4,7,13.9,10.5,20.8c7.9,15.4,4.8,30.1-5.8,43.5c-16.2,20.6-44.5,23.2-68.7,20&#10;&#9;&#9;c-10.3-1.4-20.6-4.4-29.4-10s-16-14-19.1-24c-2.5-8.2-2.2-17-0.8-25.5c1.7-10.3,4.8-20.3,9.2-29.8c2-4.2,4.2-8.3,5.1-12.9&#10;&#9;&#9;c1.4-7.5-1.2-15.1-1.9-22.6c-1.3-14.1,4.6-25.7,11.8-37.3c6.4-10.2,21.1-12.6,32.3-9.5c1.6,0.4,7.2-6.1,8.7-7.2&#10;&#9;&#9;c3.3-2.4,6.7-2.9,10.8-3.1C113.1,139.3,113.8,139.2,114.5,139.2z"/>
	<path class="st1_family-meal-8" d="M102.6,324.2c-5.8,0-11.6-0.4-17.3-1.2c-11.8-1.6-21.9-5-30.1-10.3c-9.8-6.3-16.8-15.1-19.8-25&#10;&#9;&#9;c-2.3-7.3-2.5-16-0.9-26.4c1.7-10.5,4.9-20.7,9.4-30.3c0.3-0.7,0.7-1.4,1-2c1.7-3.5,3.3-6.8,4-10.4c0.9-4.7,0-9.5-0.8-14.6&#10;&#9;&#9;c-0.4-2.4-0.9-5-1.1-7.5c-1.4-15.4,5.5-27.9,12.1-38.4c6.8-10.9,22.2-13.5,34-10.4c1.7-1.3,3.4-2.7,4.8-4.3&#10;&#9;&#9;c0.8-0.9,1.7-1.7,2.7-2.5c3.7-2.6,7.4-3.3,11.8-3.5c0.7,0,1.5-0.1,2.2-0.1l0,0c24.1-0.1,43.6,19.4,43.7,43.4c0,0.5,0,1.1,0,1.6&#10;&#9;&#9;c-0.2,6.7-2.6,12.3-4.9,17.6c-1.6,3.5-2.9,7.2-3.9,10.9c-1.7,7.4-1,17.6,1.6,25.3c1.8,4.8,4.1,9.5,6.8,13.9&#10;&#9;&#9;c1.2,2.2,2.5,4.4,3.6,6.7c7.8,15.2,5.8,30.5-6,45.5C147.3,312.8,131.7,324.2,102.6,324.2z M83.2,150.2c-8.4,0-16.8,3-21.2,9.9&#10;&#9;&#9;c-7.8,12.4-12.7,23.3-11.5,36.1c0.2,2.4,0.6,4.9,1,7.2c0.9,5.2,1.8,10.5,0.8,15.9c-0.8,4.1-2.5,7.7-4.3,11.3l-1,2&#10;&#9;&#9;c-4.4,9.3-7.5,19.1-9.1,29.3c-1.6,10-1.4,17.8,0.8,24.7c2.8,9,9.3,17.2,18.3,23c7.8,5,17.4,8.3,28.6,9.8&#10;&#9;&#9;c21.4,2.9,50.3,1.8,66.9-19.3c10.8-13.7,12.6-27.7,5.6-41.5c-1.1-2.2-2.4-4.4-3.6-6.5c-2.8-4.6-5.1-9.5-7-14.5&#10;&#9;&#9;c-2.9-8.5-3.6-19.2-1.8-27.3c1-4,2.5-7.9,4.2-11.6c2.2-5.3,4.4-10.2,4.6-16.3c0.7-22-16.5-40.4-38.5-41.2c-0.5,0-1,0-1.5,0l0,0&#10;&#9;&#9;c-0.7,0-1.3,0-2,0c-3.9,0.2-6.9,0.7-9.8,2.8c-0.4,0.3-1.4,1.2-2.2,2.1c-4.2,4.1-6.2,5.9-8.1,5.3C89.4,150.5,86.3,150.2,83.2,150.2&#10;&#9;&#9;L83.2,150.2z"/>
	<path class="st2_family-meal-8 targetColor" d="M131.2,351.1H51.4l0,0v-72c0-16.6,13.5-30.1,30.1-30.1h0h19.7c16.6,0,30.1,13.5,30.1,30.1l0,0V351.1&#10;&#9;&#9;L131.2,351.1z" style="fill: rgb(247, 204, 81);"/>
	<path class="st1_family-meal-8" d="M131.2,352.9H51.4c-1,0-1.9-0.8-1.9-1.9v-70.7c0-18.4,14.9-33.3,33.3-33.3h17c18.4,0,33.3,14.9,33.3,33.3v70.7&#10;&#9;&#9;C133.1,352.1,132.3,352.9,131.2,352.9C131.3,352.9,131.2,352.9,131.2,352.9z M53.2,349.2h76.1v-68.8c0-16.3-13.2-29.6-29.6-29.6&#10;&#9;&#9;h-17c-16.3,0-29.5,13.2-29.6,29.6L53.2,349.2z"/>
	<polygon class="st3_family-meal-8" points="96,253.1 102.1,304.6 111.2,257.9 &#9;"/>
	<path class="st1_family-meal-8" d="M102.1,306.5L102.1,306.5c-1,0-1.7-0.7-1.8-1.6l-6-51.5c-0.1-1,0.6-1.9,1.6-2.1c0.3,0,0.5,0,0.8,0.1l15.2,4.7&#10;&#9;&#9;c0.9,0.3,1.4,1.2,1.3,2.1l-9.2,46.8C103.7,305.9,102.9,306.5,102.1,306.5z M98.2,255.7l4.3,36.9l6.5-33.5L98.2,255.7z"/>
	<path class="st4_family-meal-8" d="M97,245.3l14.3,0.6c0.4,0,0.6,0.3,0.6,0.7l-0.4,10.7c-0.1,2.3-2,4.1-4.4,4l-7.2-0.3c-2.3-0.1-4.2-2-4.1-4.3&#10;&#9;&#9;c0,0,0,0,0,0l0.4-10.7C96.3,245.6,96.6,245.3,97,245.3C97,245.3,97,245.3,97,245.3z"/>
	<path class="st1_family-meal-8" d="M103.8,263.1h-0.4c-5.3-0.2-9.5-4.7-9.3-10l0.3-6.6c0-1.7,1.4-3,3.1-2.9c0,0,0,0,0.1,0l13.2,0.5&#10;&#9;&#9;c1.7,0,3,1.4,2.9,3.1c0,0,0,0,0,0.1l-0.3,6.6C113.3,259,109,263.1,103.8,263.1L103.8,263.1z M103.6,259.4c1.6,0.1,3.1-0.5,4.3-1.6&#10;&#9;&#9;c1.2-1.1,1.9-2.6,1.9-4.1l0.2-5.9l-11.9-0.5l-0.2,5.9C97.8,256.5,100.3,259.2,103.6,259.4z"/>
	
		<ellipse transform="matrix(3.891107e-02 -0.9992 0.9992 3.891107e-02 -66.5328 336.6315)" class="st4_family-meal-8" cx="141.7" cy="202.9" rx="13.1" ry="11.7"/>
	<path class="st1_family-meal-8" d="M141.6,217.8h-0.5c-7.5-0.3-13.3-7.2-13-15.4s6.7-14.6,14.1-14.4c3.7,0.2,7.2,1.9,9.5,4.8&#10;&#9;&#9;c2.4,3,3.7,6.8,3.5,10.6l0,0c-0.1,3.8-1.6,7.5-4.3,10.3C148.5,216.3,145.2,217.8,141.6,217.8z M141.8,191.7&#10;&#9;&#9;c-5.3,0-9.7,4.8-9.9,10.8s4,11.4,9.4,11.6c2.6,0.1,5.2-1,7-2.9c2-2.1,3.2-4.9,3.3-7.9l0,0c0.2-2.9-0.8-5.8-2.6-8.1&#10;&#9;&#9;c-1.6-2.1-4.1-3.3-6.8-3.5L141.8,191.7z"/>
	<path class="st4_family-meal-8" d="M101.5,252.3c-12.6-0.5-23.6-8-31.4-17.5c-7.5-9.2-21.2-30.4-5-38.8c3.8-2,8.2-2.6,12.3-4.1&#10;&#9;&#9;c10.7-4.2,18-14.2,18.7-25.6c10.8,2.4,19.6,10.3,23.1,20.8c3.7-4.7,5.1-10.7,4-16.5c-0.2-1,14.1,5,15.4,6.1&#10;&#9;&#9;c4.1,3.4,8.3,8.6,8.1,14.1l-0.7,17.6C145,233.5,127.1,253.3,101.5,252.3z"/>
	<path class="st1_family-meal-8" d="M103.3,254.2c-0.6,0-1.3,0-1.9,0l0,0c-11.9-0.5-23.6-6.9-32.8-18.2c-3.6-4.4-15.1-19.5-12.7-31.3&#10;&#9;&#9;c0.9-4.5,3.7-8,8.2-10.4c2.5-1.2,5.1-2.1,7.8-2.7c1.7-0.4,3.2-0.9,4.7-1.4c10-3.9,16.8-13.3,17.5-24c0-1,0.9-1.8,1.9-1.8&#10;&#9;&#9;c0.1,0,0.2,0,0.3,0c10.2,2.2,18.7,9.1,23.1,18.5c1.9-3.7,2.6-8,1.8-12.1c-0.1-0.8,0.2-1.6,0.9-2c0.8-0.5,1.3-0.8,9.2,2.4&#10;&#9;&#9;c1.2,0.5,7.2,3,8.4,3.9c3.4,2.8,9,8.6,8.8,15.6l-0.6,17.6C146.8,235.2,128.2,254.2,103.3,254.2z M101.5,250.5&#10;&#9;&#9;c23.7,0.9,41.7-16.8,42.6-42.2l0.6-17.6c0.2-5.6-5.1-10.7-7.4-12.6c-3.9-2-8-3.7-12.1-5.2c0.4,5.5-1.3,11-4.7,15.3&#10;&#9;&#9;c-0.4,0.5-1.1,0.8-1.8,0.7c-0.7-0.1-1.2-0.6-1.4-1.3c-3-9.2-10.4-16.3-19.7-19c-1.5,11.3-9,20.9-19.7,25.1c-1.7,0.6-3.4,1.1-5,1.6&#10;&#9;&#9;c-2.4,0.6-4.8,1.4-7,2.5c-3.6,1.9-5.6,4.4-6.3,7.8c-1.7,8.1,5.1,19.9,11.9,28.2c5,6,15.5,16.3,30.1,16.8H101.5z"/>
	<path class="st4_family-meal-8" d="M64.2,197.1c0,0-10.9-8.1-17.3,1.6s-1.3,26.9,17.4,22.7"/>
	<path class="st1_family-meal-8" d="M58.9,223.9c-5.8,0-10.6-2.2-13.5-6.5c-3.9-6-3.9-13.7,0-19.7c1.7-2.8,4.5-4.8,7.8-5.4&#10;&#9;&#9;c6.1-1,11.9,3.2,12.2,3.4c0.8,0.6,1,1.8,0.4,2.6c-0.6,0.8-1.8,1-2.6,0.4l0,0c-0.1,0-4.8-3.5-9.3-2.7c-2.2,0.4-4.2,1.8-5.3,3.8&#10;&#9;&#9;c-3.1,4.7-3.1,10.8-0.1,15.5c3,4.4,8.5,5.9,15.5,4.3c1-0.2,2,0.4,2.2,1.4c0,0,0,0,0,0c0.2,1-0.4,2-1.4,2.2c0,0,0,0,0,0&#10;&#9;&#9;C62.8,223.6,60.8,223.9,58.9,223.9z"/>
	<circle class="st1_family-meal-8" cx="100.1" cy="206.7" r="3.8"/>
	<circle class="st1_family-meal-8" cx="135.4" cy="210.5" r="3.8"/>
	<path class="st1_family-meal-8" d="M112,201.7h-0.3l-18.8-2.2c-1.6-0.1-2.9-1.5-2.8-3.1c0.1-1.6,1.5-2.9,3.1-2.8c0.1,0,0.2,0,0.3,0l18.8,2.2&#10;&#9;&#9;c1.6,0.2,2.7,1.7,2.5,3.3C114.7,200.6,113.4,201.7,112,201.7L112,201.7z"/>
	<path class="st1_family-meal-8" d="M144.4,206.3c-0.1,0-0.3,0-0.4,0l-17.9-2.4c-1.6-0.3-2.7-1.8-2.4-3.4c0.3-1.5,1.6-2.5,3.1-2.4l17.9,2.4&#10;&#9;&#9;c1.6,0.2,2.7,1.7,2.5,3.3C147,205.3,145.8,206.3,144.4,206.3L144.4,206.3z"/>
	<path class="st1_family-meal-8" d="M118.8,227.4c-1.7,0.1-3.3-0.3-4.7-1.1c-0.9-0.4-1.3-1.6-0.9-2.5c0.4-0.9,1.6-1.3,2.5-0.9&#10;&#9;&#9;c0.1,0.1,0.3,0.1,0.4,0.2c0.1,0,2.2,1.3,6.8-0.2c0.4-0.1,0.4-0.3,0.5-0.4c0.4-1.6-2.3-6.2-5.2-9.4c-0.7-0.8-0.6-1.9,0.2-2.6&#10;&#9;&#9;c0.8-0.7,1.9-0.6,2.6,0.2c1.2,1.4,7.1,8.5,5.9,12.9c-0.4,1.4-1.5,2.5-2.9,2.9C122.3,227.1,120.6,227.4,118.8,227.4z"/>
	<path class="st1_family-meal-8" d="M113.4,239.5c-3.7,0.1-7.4-0.9-10.4-3c-3.4-2.6-5.7-6.4-6.2-10.7c-0.1-1,0.6-1.9,1.7-2c1-0.1,1.9,0.6,2,1.7&#10;&#9;&#9;l0,0c0.5,3.2,2.2,6.1,4.7,8.1c3.4,2.4,8.3,2.9,14.6,1.5c1-0.2,2,0.4,2.2,1.4c0.2,1-0.4,2-1.4,2.2l0,0&#10;&#9;&#9;C118.2,239.2,115.8,239.5,113.4,239.5z"/>
	<polygon class="st1_family-meal-8" points="51.4,351.1 52,373.5 134.7,373.5 130,352.8 &#9;"/>
	<path class="st1_family-meal-8" d="M134.7,375.4H52c-1,0-1.8-0.8-1.8-1.8l-0.6-22.5c0-0.5,0.2-1,0.5-1.4c0.4-0.4,0.8-0.5,1.3-0.5l78.6,1.7&#10;&#9;&#9;c0.9,0,1.6,0.6,1.8,1.5l4.7,20.7c0.1,0.6,0,1.1-0.4,1.6C135.9,375.1,135.3,375.4,134.7,375.4z M53.7,371.7h78.6l-3.9-17.1L53.3,353&#10;&#9;&#9;L53.7,371.7z"/>
	<path class="st3_family-meal-8" d="M188.6,292.3c-0.7-0.4-1.3-0.9-1.9-1.4c-4-3.4-10-2.2-15-0.8c-2.4-2.5-6-3.5-9.4-2.7c-3.7,0.7-5.6,3.9-8.7,5&#10;&#9;&#9;s-5.6-0.2-8.4,2.7c-2.4,2.7-3.4,6.2-2.9,9.8c0.1,1.4,0.6,2.8,1.4,4c1.7,2.2,4.7,2.7,7.4,3c8.5,0.8,17.1,1.1,25.7,0.8&#10;&#9;&#9;c6.2-0.2,13.7,1.1,18.4-3.7c1.8-1.8,2.7-4.3,2.4-6.8c-0.2-1-0.5-1.9-1-2.8c-1.2-2.8-2.9-5.9-5.9-6.6&#10;&#9;&#9;C190.1,292.7,189.3,292.5,188.6,292.3z"/>
	<path class="st1_family-meal-8" d="M170.2,314.5c-6.4,0-12.9-0.3-19.3-0.9c-3.3-0.3-6.6-1-8.7-3.7c-1-1.5-1.7-3.2-1.8-5&#10;&#9;&#9;c-0.5-4.1,0.8-8.2,3.5-11.2c1.7-1.8,4-2.8,6.4-2.7c0.9,0,1.8-0.2,2.7-0.5c1.2-0.5,2.2-1.2,3.2-2c1.6-1.5,3.6-2.5,5.8-3&#10;&#9;&#9;c3.6-0.8,7.4,0.1,10.2,2.5c5.7-1.5,11.4-2.1,15.7,1.4l0.5,0.4c0.3,0.3,0.6,0.5,0.9,0.7l0,0c0.3,0.1,0.6,0.2,0.9,0.2&#10;&#9;&#9;c0.3,0,0.6,0.1,0.9,0.1c3.7,0.8,5.6,4.1,7.2,7.6c0.5,1,0.9,2.1,1.1,3.2c0.4,3.1-0.7,6.2-2.9,8.4c-4.4,4.5-10.6,4.4-16.1,4.3&#10;&#9;&#9;c-1.2,0-2.4,0-3.6,0C174.6,314.5,172.4,314.5,170.2,314.5z M164.6,289c-0.6,0-1.3,0.1-1.9,0.2c-1.6,0.4-3,1.2-4.2,2.3&#10;&#9;&#9;c-1.3,1.1-2.7,2-4.3,2.6c-1.2,0.4-2.4,0.6-3.6,0.6c-1.7,0.1-2.8,0.2-4.1,1.6c-2,2.3-2.9,5.3-2.5,8.3c0,1.1,0.4,2.2,1,3.1&#10;&#9;&#9;c1.2,1.5,3.6,2,6.1,2.2c8.5,0.8,17,1.1,25.5,0.8c1.2,0,2.5,0,3.8,0c5,0.1,10.1,0.2,13.4-3.2c1.4-1.3,2.1-3.3,1.9-5.2&#10;&#9;&#9;c-0.2-0.8-0.5-1.6-0.9-2.4c-1.2-2.6-2.5-5.1-4.6-5.5c-0.2,0-0.4-0.1-0.6-0.1c-0.7-0.1-1.3-0.2-1.9-0.5c-0.7-0.3-1.4-0.8-1.9-1.4&#10;&#9;&#9;l-0.4-0.3c-3.2-2.7-8.3-1.8-13.3-0.4c-0.7,0.2-1.4,0-1.9-0.5C168.8,289.8,166.8,288.9,164.6,289z"/>
	<path class="st5_family-meal-8" d="M130.4,304.6c0,7.4,16.4,13.4,36.7,13.4s36.7-6,36.7-13.4H130.4z"/>
	<path class="st1_family-meal-8" d="M167.1,319.9c-18.7,0-38.6-5.4-38.6-15.3c0-1,0.8-1.9,1.8-1.9h0h73.4c1,0,1.9,0.8,1.9,1.9l0,0&#10;&#9;&#9;C205.7,314.6,185.8,319.9,167.1,319.9z M132.8,306.5c2.8,4.9,16.1,9.7,34.3,9.7s31.6-4.8,34.3-9.7H132.8z"/>
	<path class="st4_family-meal-8" d="M152.3,300.5c0,0,11.9-1.8,18.7-1.8s16.1,0.3,11.3,3.6c-3,2-6.2,3.8-9.5,5.2c0,0,18.1-0.4,18.4,5.6&#10;&#9;&#9;s-5.9,6.1-7.1,6.1s-31.7-1.8-31.7-1.8V300.5z"/>
	<path class="st1_family-meal-8" d="M184,321c-1.2,0-28.7-1.6-31.8-1.8c-1-0.1-1.7-0.9-1.7-1.9v-16.8c0-0.9,0.7-1.7,1.6-1.8&#10;&#9;&#9;c0.5-0.1,12.1-1.8,18.9-1.8c10.1,0,13.6,0.8,14.3,3.1c0.4,1.4-0.3,2.6-2,3.8c-1.1,0.8-2.2,1.5-3.3,2.1c5.8,0.6,12.7,2.3,12.9,7.1&#10;&#9;&#9;c0.2,2-0.5,4-1.8,5.5C190,319.7,187.9,321,184,321z M154.1,315.6c12.1,0.7,28.9,1.7,29.9,1.7c2.6,0,3.9-0.7,4.4-1.3&#10;&#9;&#9;c0.7-0.8,0.9-1.8,0.8-2.8c-0.1-2.5-8.8-4.1-16.5-3.9c-1,0-1.9-0.8-1.9-1.8c0-0.8,0.4-1.5,1.2-1.8c3-1.3,5.9-2.8,8.6-4.6&#10;&#9;&#9;c-3.2-0.4-6.5-0.6-9.7-0.5c-5.6,0.2-11.2,0.7-16.8,1.6L154.1,315.6z"/>
	<path class="st2_family-meal-8 targetColor" d="M82.9,257.9c8.3,10.5,25,31,27.7,31.1c3.7,0.2,51.8,11.6,51.8,11.6v16.9c0,0-48,2.3-62.2-0.4&#10;&#9;&#9;c-14-2.6-30.4-19.2-40.1-30.6" style="fill: rgb(247, 204, 81);"/>
	<path class="st1_family-meal-8" d="M125.3,320.2c-10.3,0-20.2-0.3-25.5-1.3c-14.1-2.6-30.2-18.4-41.2-31.2c-0.7-0.8-0.6-1.9,0.2-2.6&#10;&#9;&#9;c0.8-0.7,1.9-0.6,2.6,0.2l0,0c8.7,10.1,25.3,27.4,39.1,30c12.3,2.3,51.2,0.8,60,0.4V302c-19.2-4.5-47.5-11-50-11.2&#10;&#9;&#9;c-1.3-0.1-4-0.2-29.1-31.8c-0.6-0.8-0.5-2,0.3-2.6c0.8-0.6,2-0.5,2.6,0.3l0,0c16.8,21.1,24.8,29.5,26.6,30.4&#10;&#9;&#9;c4.9,0.5,47,10.5,51.9,11.6c0.8,0.2,1.4,0.9,1.4,1.8v16.9c0,1-0.8,1.8-1.8,1.9C161.2,319.3,142.6,320.2,125.3,320.2z"/>
</g>
<g id="character-3_family-meal-8">
	<path class="st2_family-meal-8 targetColor" d="M386,260.3c0,0-16,29.8-22.8,30.6s-45.9,13.7-45.9,13.7l14.2,11.1c0,0,40,3.1,50.7-2.7s9.6-30.7,9.6-30.7&#10;&#9;&#9;L386,260.3z" style="fill: rgb(247, 204, 81);"/>
	<path class="st1_family-meal-8" d="M354,318.5c-11.4,0-21.7-0.8-22.5-0.8c-0.4,0-0.7-0.2-1-0.4l-14.2-11.1c-0.8-0.6-1-1.8-0.3-2.6&#10;&#9;&#9;c0.2-0.3,0.5-0.5,0.9-0.6c1.6-0.5,39.4-13,46.2-13.8c3.6-0.5,13.9-15.8,21.4-29.7c0.5-0.9,1.6-1.2,2.5-0.8c0.5,0.2,0.8,0.7,0.9,1.2&#10;&#9;&#9;l5.9,22.2c0,0.1,0,0.3,0.1,0.4c0,1.1,0.9,26.1-10.6,32.4C377.7,317.7,365.3,318.5,354,318.5z M332.3,314c11.4,0.9,40.9,2,49.1-2.5&#10;&#9;&#9;c7.8-4.2,8.9-22,8.7-28.8l-4.6-17.5c-5.3,9.5-15.8,26.8-21.9,27.5c-4.8,0.6-28.1,8-42.2,12.6L332.3,314z"/>
	<path class="st2_family-meal-8 targetColor" d="M409.9,249h17.6c17.2,0,31.1,13.9,31.1,31.1v71l0,0h-79.8l0,0v-71C378.7,262.9,392.7,249,409.9,249L409.9,249z&#10;&#9;&#9;" style="fill: rgb(247, 204, 81);"/>
	<path class="st1_family-meal-8" d="M458.5,352.9h-79.8c-1,0-1.9-0.8-1.9-1.8c0,0,0,0,0,0v-70.7c0-18.4,14.9-33.3,33.3-33.3h17&#10;&#9;&#9;c18.4,0,33.3,14.9,33.3,33.3v70.7C460.4,352.1,459.6,352.9,458.5,352.9C458.6,352.9,458.6,352.9,458.5,352.9z M380.5,349.2h76.1&#10;&#9;&#9;v-68.8c0-16.3-13.2-29.6-29.6-29.6h-17c-16.3,0-29.6,13.2-29.6,29.6L380.5,349.2z"/>
	<path class="st1_family-meal-8" d="M408.1,364.2c-1,0-1.8-0.8-1.9-1.8l-1.6-101.1c0.1-1,0.9-1.8,2-1.8c0.9,0.1,1.7,0.8,1.7,1.7l1.6,101.1&#10;&#9;&#9;C409.9,363.3,409.1,364.1,408.1,364.2L408.1,364.2z"/>
	<path class="st1_family-meal-8" d="M397.3,271.2c-0.3,0-0.5,0-0.8-0.1c-3-0.6-3.7-5.2-2.1-13.6c0.2-1,1.1-1.7,2.2-1.5c1,0.2,1.7,1.1,1.5,2.2l0,0&#10;&#9;&#9;c-0.7,3.8-0.9,8-0.5,9.3c1.1-0.2,3.5-2,5.4-4c0.7-0.7,1.9-0.8,2.6-0.1c0.7,0.7,0.8,1.9,0.1,2.6&#10;&#9;&#9;C404.5,267.4,400.6,271.2,397.3,271.2z M397.7,267.8L397.7,267.8z"/>
	<path class="st0_family-meal-8" d="M414.8,126.6c-5.6-0.3-11.1,0-16.6,0.9c-6.4,1.1-12.9,2.9-18.5,6.3c-5.8,3.5-8.5,8.2-12.6,13.3&#10;&#9;&#9;c-2.5,3.1-6.1,4.8-8,8.4c-5.5,10.2-6,27.1-1,37.7c1.7,3.5,5.6,5.4,8.9,7.3c15.4,8.8,31.6,17.8,49.3,17.7&#10;&#9;&#9;c14.5-0.1,28.3-6.6,40.8-14.1c5.7-3.4,7.8-11.7,8.8-18c1.3-8-1.2-16.8-5-23.8c-1.7-3.1-2.8-6.6-5.3-9.3c-1.4-1.5-3-2.8-4.8-3.8&#10;&#9;&#9;c-0.5-0.3-4.7-1.5-4.7-1.7C442.3,133,428.6,127.5,414.8,126.6z"/>
	<path class="st1_family-meal-8" d="M415.9,219.9c-18.5,0-35.8-9.9-49.8-17.9l-1-0.6c-3.2-1.8-6.9-3.9-8.6-7.5c-5.2-11-4.8-28.6,1-39.3&#10;&#9;&#9;c1.3-2.1,3-4,5-5.5c1.2-0.9,2.3-2,3.3-3.1c0.9-1.1,1.7-2.2,2.5-3.2c3-3.9,5.8-7.6,10.6-10.5c5.1-3,11.4-5.2,19.1-6.5&#10;&#9;&#9;c5.6-1,11.4-1.3,17.1-0.9c17.4,1.2,28.9,8.7,32.7,21.3l1.5,0.5c0.8,0.3,1.7,0.6,2.5,0.9c2,1.1,3.8,2.5,5.3,4.1&#10;&#9;&#9;c1.7,2.1,3.1,4.4,4.2,6.9c0.4,0.9,0.9,1.9,1.4,2.8c2.6,4.9,6.9,14.8,5.2,25s-4.8,16.4-9.7,19.3c-11,6.6-25.6,14.2-41.7,14.3&#10;&#9;&#9;L415.9,219.9z M410.4,128.3c-4,0-8,0.3-11.9,1c-7.3,1.3-13.1,3.3-17.8,6.1c-4.2,2.5-6.7,5.8-9.6,9.5c-0.8,1.1-1.7,2.2-2.6,3.3&#10;&#9;&#9;c-1.1,1.3-2.4,2.5-3.7,3.6c-1.6,1.2-3,2.7-4.1,4.4c-5.3,9.8-5.7,26-0.9,36c1.2,2.6,4.2,4.3,7.1,5.9l1,0.6&#10;&#9;&#9;c14.4,8.2,30.7,17.6,48.4,17.4c15.2-0.1,29.3-7.4,39.8-13.8c3.9-2.3,6.5-7.8,7.9-16.7c1.1-6.7-0.7-14.9-4.8-22.6&#10;&#9;&#9;c-0.5-0.9-1-1.9-1.4-2.9c-0.9-2.2-2.1-4.2-3.6-6c-1.2-1.4-2.7-2.5-4.3-3.4c-0.2-0.1-1.1-0.4-1.9-0.7c-3-1-3.4-1.1-3.7-2.2&#10;&#9;&#9;c-4.1-15.5-20.3-18.9-29.6-19.5l0,0C413.3,128.4,411.9,128.3,410.4,128.3L410.4,128.3z"/>
	<path class="st4_family-meal-8" d="M410,261.1l-7.2,0.3c-2.3,0.1-4.3-1.7-4.4-4l-0.4-10.8c0-0.4,0.3-0.7,0.6-0.7h0l14.3-0.6&#10;&#9;&#9;c0.4,0,0.7,0.3,0.7,0.6v0l0.4,10.8C414.1,259,412.3,261,410,261.1z"/>
	<path class="st1_family-meal-8" d="M406.1,263.1c-5.2,0-9.4-4.1-9.6-9.3l-0.3-6.6c-0.1-1.7,1.2-3.1,2.9-3.1c0,0,0,0,0.1,0l13.2-0.5&#10;&#9;&#9;c1.7-0.1,3.1,1.2,3.1,2.8c0,0,0,0,0,0.1l0.3,6.6c0.2,5.3-4,9.8-9.3,10L406.1,263.1L406.1,263.1z M406.4,261.2L406.4,261.2z&#10;&#9;&#9; M400,247.7l0.2,5.9c0.2,3.3,3,5.8,6.2,5.6c3.2-0.2,5.7-2.9,5.6-6.1l-0.2-5.9L400,247.7z"/>
	
		<ellipse transform="matrix(0.9992 -3.996804e-02 3.996804e-02 0.9992 -7.8062 14.898)" class="st4_family-meal-8" cx="368.7" cy="202.7" rx="11.7" ry="13.1"/>
	<path class="st1_family-meal-8" d="M368.3,217.8c-3.5,0-6.9-1.5-9.3-4.1c-5.4-5.8-5.8-14.7-0.8-20.9c2.3-2.9,5.8-4.6,9.5-4.8&#10;&#9;&#9;c7.5-0.3,13.8,6.1,14.1,14.4s-5.5,15.1-13,15.4L368.3,217.8z M368.1,191.7h-0.3c-2.6,0.1-5.1,1.4-6.8,3.5c-1.8,2.3-2.8,5.2-2.6,8.1&#10;&#9;&#9;l0,0c0.1,2.9,1.2,5.7,3.3,7.9c1.8,1.9,4.4,3,7,2.9c5.4-0.2,9.6-5.4,9.4-11.6S373.4,191.7,368.1,191.7L368.1,191.7z"/>
	<path class="st4_family-meal-8" d="M408.5,252.3c25.6-1,47.4-33.5,46.4-58.8c0,0.5-5.9,2.6-6.6,2.2c-0.9-0.4-0.9-3.4-1.6-4.2&#10;&#9;&#9;c-1.2-1.4-2.7-2.5-4.5-3.2c-2.6-1.1-5.5-1.7-7.7-3.4c-5.7-4.5-4.7-14.6-10.8-18.6c-3.5-2.3-8.2-1.6-12,0.2s-6.9,4.7-10.5,6.9&#10;&#9;&#9;c-4.8,2.9-10.9,4.6-15.9,2c-4.3-2.3-7.5-7.6-12.4-7.3c-8.5,0.6-10,16.4-9.8,22.5l0.6,17.6C364.9,233.5,382.9,253.3,408.5,252.3z"/>
	<path class="st1_family-meal-8" d="M406.7,254.2c-11.6,0.1-22.8-4.5-31-12.8c-8.2-8.4-13.1-20.2-13.6-33.1l-0.6-17.6c-0.2-6.6,1.4-23.7,11.5-24.4&#10;&#9;&#9;c3.9-0.3,6.8,2.2,9.3,4.5c1.2,1.1,2.6,2.1,4,3c3.7,1.9,8.9,1.2,14.1-1.9c1.4-0.8,2.6-1.8,4-2.7c2.1-1.6,4.3-3,6.6-4.2&#10;&#9;&#9;c5-2.4,10.1-2.5,13.8-0.1s5.1,6.5,6.4,10.4c1.1,3.3,2.2,6.4,4.5,8.3c1.5,1,3.1,1.8,4.8,2.3c0.8,0.3,1.6,0.6,2.4,0.9&#10;&#9;&#9;c2.1,0.8,3.9,2.1,5.3,3.8c0.5,0.8,0.8,1.7,0.9,2.6c0,0.2,0.1,0.5,0.2,0.8c1.4-0.4,2.8-0.9,4.1-1.5c0.3-0.4,0.8-0.6,1.4-0.7h0.1&#10;&#9;&#9;c1,0,1.8,0.8,1.9,1.8c1,25.9-21.5,59.6-48.1,60.7l0,0C407.9,254.2,407.3,254.2,406.7,254.2z M373.5,170h-0.3&#10;&#9;&#9;c-6.6,0.5-8.3,14.4-8.1,20.6l0.6,17.6c0.5,12,4.9,22.9,12.5,30.6c7.9,8,18.9,12.2,30.1,11.6l0,0c19.9-0.8,44-26,44.6-53.9&#10;&#9;&#9;c-1.9,0.8-4.5,1.5-5.6,0.9s-1.6-2.1-1.9-3.6c-0.1-0.4-0.2-0.9-0.3-1.3c-1-1.1-2.2-2-3.7-2.5c-0.7-0.3-1.5-0.6-2.2-0.8&#10;&#9;&#9;c-2.1-0.6-4.1-1.6-5.9-2.9c-3.2-2.5-4.5-6.3-5.7-10c-1.2-3.5-2.3-6.8-4.9-8.5c-3-2-7.2-1.1-10.1,0.3c-2.1,1.1-4.2,2.4-6.1,3.9&#10;&#9;&#9;c-1.4,1-2.7,2-4.2,2.9c-6.2,3.8-12.9,4.6-17.7,2.1c-1.7-1-3.3-2.2-4.8-3.5C377.7,171.6,375.7,170,373.5,170z"/>
	<path class="st4_family-meal-8" d="M445.8,197.1c0,0,10.9-8.1,17.2,1.6s1.3,26.9-17.4,22.7"/>
	<path class="st1_family-meal-8" d="M451.1,223.9c-2,0-3.9-0.2-5.8-0.7c-1-0.2-1.6-1.2-1.4-2.2c0.2-1,1.2-1.6,2.2-1.4c7,1.6,12.5,0,15.5-4.3&#10;&#9;&#9;c3-4.7,3-10.8-0.1-15.5c-1.1-2-3.1-3.4-5.3-3.8c-4.5-0.8-9.3,2.7-9.3,2.7c-0.8,0.6-2,0.4-2.6-0.4c-0.6-0.8-0.4-2,0.4-2.6&#10;&#9;&#9;c0.2-0.2,6-4.5,12.1-3.4c3.2,0.6,6.1,2.6,7.8,5.4c3.9,6,3.9,13.7,0,19.7C461.7,221.6,456.9,223.9,451.1,223.9z"/>
	<path class="st1_family-meal-8" d="M415.1,269.2c-3.4,0-6.6-2.9-6.9-3.3c-0.7-0.7-0.8-1.9-0.1-2.6s1.9-0.8,2.6-0.1l0,0c0.7,0.6,3,2.4,4.5,2.3&#10;&#9;&#9;c0.5,0,0.9-0.3,1.2-0.7c2.3-3,0.4-8.7,0.4-8.8c-0.3-1,0.2-2,1.1-2.4c1-0.3,2,0.2,2.4,1.1c0.1,0.3,2.7,7.6-0.9,12.3&#10;&#9;&#9;c-0.9,1.2-2.3,2-3.9,2.1L415.1,269.2z"/>
	<circle class="st1_family-meal-8" cx="407.5" cy="206.4" r="3.8"/>
	<circle class="st1_family-meal-8" cx="372.2" cy="210.2" r="3.8"/>
	<path class="st1_family-meal-8" d="M396.6,202c-1.6,0-2.9-1.3-2.9-3c0-1.4,1.1-2.7,2.5-2.9l17.9-2.9c1.6-0.3,3.2,0.7,3.5,2.3&#10;&#9;&#9;c0.3,1.6-0.7,3.2-2.3,3.5c-0.1,0-0.2,0-0.3,0l-17.9,2.9C396.9,202,396.7,202,396.6,202z"/>
	<path class="st1_family-meal-8" d="M363.2,206c-1.6,0-2.9-1.4-2.9-3c0-1.5,1.1-2.7,2.6-2.9l16.3-1.7c1.6-0.1,3,1,3.2,2.6c0.2,1.6-1,3.1-2.6,3.2&#10;&#9;&#9;c0,0,0,0,0,0l-16.3,1.8H363.2z"/>
	<path class="st1_family-meal-8" d="M388.8,227.1c-1.8,0-3.6-0.3-5.3-0.9c-1.4-0.4-2.5-1.5-2.9-2.9c-1.2-4.4,4.7-11.5,5.9-12.9&#10;&#9;&#9;c0.7-0.7,1.9-0.8,2.6-0.1c0.7,0.7,0.8,1.7,0.2,2.5c-2.9,3.3-5.6,7.9-5.1,9.4c0,0.1,0.1,0.2,0.5,0.4c4.6,1.5,6.8,0.2,6.9,0.2&#10;&#9;&#9;c0.9-0.5,2-0.3,2.5,0.6c0.5,0.8,0.3,2-0.5,2.5C392.1,226.7,390.4,227.1,388.8,227.1z"/>
	<path class="st1_family-meal-8" d="M403.7,237.7c-1,0-1.9-0.8-1.9-1.8c0-0.7,0.4-1.4,1-1.7c0.2-0.1,4.6-2.5,5.8-10.7c0.1-1,1.1-1.7,2.1-1.6&#10;&#9;&#9;c0,0,0,0,0,0c1,0.1,1.7,1.1,1.6,2.1c-1.5,10.3-7.5,13.4-7.8,13.5C404.2,237.6,404,237.7,403.7,237.7z"/>
	<polygon class="st1_family-meal-8" points="458.5,351.1 458,373.5 375.2,373.5 379.9,352.8 &#9;"/>
	<path class="st1_family-meal-8" d="M458,375.4h-82.8c-1,0-1.9-0.8-1.9-1.8c0-0.1,0-0.3,0-0.4l4.7-20.7c0.2-0.8,0.9-1.4,1.8-1.5l78.6-1.7&#10;&#9;&#9;c0.5,0,1,0.2,1.4,0.5c0.4,0.4,0.6,0.9,0.5,1.4l-0.6,22.5C459.8,374.6,459,375.4,458,375.4z M377.5,371.7h78.6l0.5-18.7l-75.2,1.6&#10;&#9;&#9;L377.5,371.7z"/>
	<path class="st3_family-meal-8" d="M311.9,300.4c1.3-5.2,6.6-8.3,11.8-7c0.9,0.2,1.8,0.6,2.6,1.1c4.1-4.1,10.6-4.8,15.4-1.6&#10;&#9;&#9;c3.3-1.4,7.2-0.5,9.6,2.1c2.4,2.7,3.4,6.2,3,9.8c-0.1,1.4-0.6,2.8-1.4,4c-1.7,2.2-4.7,2.7-7.4,3c-11.2,1-22.6,1.2-33.8,0.5&#10;&#9;&#9;c-2.3,0-4.5-0.4-6.6-1.4c-3.3-1.8-3.8-4.9-1.4-7.5C304.5,302.6,312.1,299.5,311.9,300.4z"/>
	<path class="st1_family-meal-8" d="M326.6,314.5c-4.6,0-9.6-0.1-14.9-0.4c-2.7-0.1-5.1-0.3-7.4-1.6c-1.9-0.9-3.3-2.7-3.8-4.8&#10;&#9;&#9;c-0.3-2.1,0.4-4.1,1.9-5.6c2.5-1.7,5.3-2.9,8.1-3.6c2.3-6,9.1-8.9,15-6.6c0.2,0.1,0.4,0.1,0.5,0.2c4.5-3.6,10.8-4.2,15.9-1.4&#10;&#9;&#9;c3.9-1.1,8,0,10.8,2.9c2.7,3.1,4,7.2,3.5,11.2c-0.1,1.8-0.7,3.5-1.8,4.9c-2,2.6-5.4,3.3-8.7,3.7C339.4,314.2,333,314.5,326.6,314.5&#10;&#9;&#9;z M311.3,302.1c-2.2,0.7-4.3,1.5-6.3,2.7c-0.6,0.6-0.9,1.5-0.9,2.4c0.3,1,1,1.8,1.9,2.2c1.8,0.8,3.8,1.2,5.8,1.1&#10;&#9;&#9;c11.2,0.7,22.4,0.5,33.5-0.5c2.5-0.2,4.9-0.7,6.1-2.2c0.6-0.9,1-2,1-3.1c0.4-3-0.5-6-2.5-8.3c-1.9-2.1-4.9-2.8-7.5-1.8&#10;&#9;&#9;c-0.6,0.3-1.3,0.2-1.8-0.1c-4.1-2.7-9.5-2.1-13,1.3c-0.6,0.6-1.6,0.8-2.3,0.3c-3.7-2.3-8.6-1.1-10.8,2.6c-0.4,0.7-0.7,1.4-0.9,2.1&#10;&#9;&#9;l0,0c-0.2,1-1.2,1.6-2.2,1.3c0,0,0,0,0,0L311.3,302.1z"/>
	<path class="st5_family-meal-8" d="M366.3,304.6c0,7.4-16.4,13.4-36.7,13.4s-36.7-6-36.7-13.4H366.3z"/>
	<path class="st1_family-meal-8" d="M329.6,319.9c-18.7,0-38.6-5.4-38.6-15.3c0-1,0.8-1.9,1.9-1.9l0,0h73.4c1,0,1.9,0.8,1.9,1.9l0,0&#10;&#9;&#9;C368.2,314.6,348.3,319.9,329.6,319.9z M295.3,306.5c2.8,4.9,16.1,9.7,34.3,9.7s31.6-4.8,34.3-9.7H295.3z"/>
	<path class="st4_family-meal-8" d="M357.7,300.5c0,0-11.9-1.8-18.7-1.8s-16,0.3-11.3,3.6c3,2,6.2,3.8,9.5,5.2c0,0-18.1-0.4-18.4,5.6&#10;&#9;&#9;s5.9,6.1,7.1,6.1s31.7-1.8,31.7-1.8V300.5z"/>
	<path class="st1_family-meal-8" d="M326,321c-3.9,0-6-1.4-7.1-2.5c-1.4-1.5-2.1-3.5-1.9-5.5c0.2-4.8,7.1-6.5,12.9-7.1c-1-0.6-2.2-1.3-3.3-2.1&#10;&#9;&#9;c-1.8-1.2-2.4-2.5-2-3.8c0.7-2.4,4.2-3.1,14.3-3.1c6.9,0,18.5,1.8,19,1.8c0.9,0.1,1.6,0.9,1.6,1.8v16.9c0,1-0.8,1.8-1.7,1.9&#10;&#9;&#9;C354.6,319.4,327.2,321,326,321z M336,309.3c-7.4,0-15.1,1.5-15.2,3.9c-0.1,1,0.2,2,0.8,2.8c0.6,0.6,1.8,1.3,4.4,1.3&#10;&#9;&#9;c0.9,0,17.7-1,29.8-1.7v-13.5c-5.6-0.8-11.2-1.3-16.9-1.5c-3.2-0.1-6.5,0.1-9.7,0.5c2.7,1.8,5.6,3.3,8.6,4.6&#10;&#9;&#9;c0.8,0.3,1.3,1.2,1.1,2.1c-0.2,0.9-1,1.5-1.9,1.5L336,309.3z"/>
	<path class="st2_family-meal-8 targetColor" d="M427.1,257.9c-8.3,10.5-25,31-27.7,31.1c-3.7,0.2-51.8,11.6-51.8,11.6v16.9c0,0,48,2.3,62.2-0.4&#10;&#9;&#9;c14-2.6,30.4-19.2,40.1-30.6" style="fill: rgb(247, 204, 81);"/>
	<path class="st1_family-meal-8" d="M384.6,320.2c-17.3,0-35.9-0.9-37.1-0.9c-1,0-1.8-0.9-1.8-1.9v-16.9c0-0.9,0.6-1.6,1.4-1.8&#10;&#9;&#9;c4.9-1.1,47-11.1,51.9-11.6c1.8-0.9,9.8-9.3,26.6-30.4c0.6-0.8,1.8-0.9,2.6-0.3c0.8,0.6,0.9,1.8,0.3,2.6l0,0&#10;&#9;&#9;c-25.1,31.6-27.8,31.7-29.1,31.8c-2.5,0.1-30.8,6.6-50,11.2v13.6c8.8,0.4,47.7,1.9,60-0.4c13.7-2.5,30.4-19.9,39.1-30&#10;&#9;&#9;c0.7-0.8,1.8-0.9,2.6-0.2c0.8,0.7,0.9,1.8,0.2,2.6c-11,12.8-27.1,28.6-41.2,31.2C404.8,319.9,395,320.2,384.6,320.2z"/>
</g>
<g id="character-2_family-meal-8">
	<path class="st0_family-meal-8" d="M298.3,224.2c-0.5-7.2-2.6-14.2-6-20.6C282.5,186,250.8,169,233,188c-0.3,0.4-0.8,0.8-1.3,1&#10;&#9;&#9;c-0.3,0.1-0.7,0.1-1.1,0.1c-15.1,0.2-21,9.8-24.6,21.1c-0.8,2.8-1.4,5.7-1.5,8.6c-0.2,1.8-0.4,3.6-0.4,5.4c0,2.3,0.2,4.6,0.6,6.9&#10;&#9;&#9;c0.4,5.3,1,10.6,1.3,15.2c0.7,13.1,1.9,26.2,3.6,39.3c0.2,1.6,18.7,4,20.9,4.3c7.6,1.1,15.4,1.8,23.1,2c7.5,0.2,14.9-0.1,22.3-0.8&#10;&#9;&#9;c7-0.7,14.9,1,18-6.3c1.6-3.6,1.2-7.5,1.1-11.4c-0.3-11.3,2-22.5,3-33.8C298.6,234.6,298.7,229.4,298.3,224.2z"/>
	<path class="st1_family-meal-8" d="M258.3,293.8c-1.6,0-3.2,0-4.8-0.1c-7.8-0.2-15.6-0.9-23.3-2l-1.1-0.1c-21-2.9-21.2-4-21.4-5.8&#10;&#9;&#9;c-1.7-13-3-26.3-3.6-39.4c-0.1-2.6-0.4-5.5-0.7-8.5c-0.2-2.2-0.4-4.5-0.6-6.7c-0.4-2.3-0.6-4.7-0.6-7c0-1.9,0.1-3.8,0.4-5.6&#10;&#9;&#9;c0.2-3,0.7-6,1.6-8.9c3.3-10.3,9.2-22.2,26.3-22.4c0.2,0,0.4,0,0.6,0c0.2-0.1,0.3-0.3,0.5-0.5c6.5-6.9,15.2-9.9,25.3-8.7&#10;&#9;&#9;c14.2,1.8,30.1,12.4,37,24.7c3.6,6.6,5.7,13.8,6.2,21.2l0,0c0.4,5.3,0.4,10.6-0.2,15.9c-0.3,3.8-0.8,7.6-1.3,11.3&#10;&#9;&#9;c-0.9,7.3-1.9,14.9-1.7,22.3v1.4c0.1,3.6,0.2,7.2-1.3,10.8c-3,6.8-9.5,7-15.3,7.2c-1.4,0-2.9,0.1-4.2,0.2&#10;&#9;&#9;C270.2,293.6,264.3,293.8,258.3,293.8z M211.3,284.6c1.2,0.5,5.3,1.5,18.3,3.3l1.1,0.2c14.9,2.2,30,2.6,45,1.2&#10;&#9;&#9;c1.5-0.1,3-0.2,4.5-0.2c6.2-0.2,10.1-0.5,12-4.9c1.2-2.8,1.1-5.9,1-9.2l0-1.4c-0.2-7.7,0.8-15.4,1.8-22.9c0.5-3.6,1-7.4,1.3-11.1&#10;&#9;&#9;c0.5-5.1,0.6-10.2,0.2-15.2c-0.5-6.9-2.5-13.7-5.8-19.8c-6.3-11.4-21-21.2-34.2-22.8c-6.2-0.8-15-0.1-22.1,7.5&#10;&#9;&#9;c-0.6,0.7-1.3,1.2-2.1,1.5c-0.5,0.1-1,0.2-1.5,0.2c-14.7,0.2-19.7,9.6-22.9,19.9c-0.8,2.7-1.3,5.4-1.4,8.2&#10;&#9;&#9;c-0.2,1.7-0.4,3.5-0.4,5.3c0,2.2,0.2,4.4,0.5,6.6c0.2,2.4,0.4,4.6,0.6,6.8c0.3,3,0.6,5.9,0.7,8.6C208.5,259,209.7,272,211.3,284.6&#10;&#9;&#9;L211.3,284.6z"/>
	<path class="st2_family-meal-8 targetColor" d="M291.1,355.8h-80.3L207,300c0-16.4,14.8-29.7,33-29.7h21.8c18.2,0,33,13.3,33,29.7L291.1,355.8z" style="fill: rgb(247, 204, 81);"/>
	<path class="st1_family-meal-8" d="M291.1,357.7h-80.3c-0.9,0-1.7-0.7-1.8-1.7l-3.8-55.8c0-17.5,15.6-31.6,34.9-31.6h21.8&#10;&#9;&#9;c19.2,0,34.9,14.1,34.9,31.5L293,356C292.9,357,292.1,357.7,291.1,357.7z M212.5,354h76.9l3.7-54.1c0-15.2-14-27.7-31.2-27.7h-21.8&#10;&#9;&#9;c-17.2,0-31.2,12.5-31.2,27.8L212.5,354z"/>
	<ellipse class="st4_family-meal-8" cx="292.5" cy="245.7" rx="11.3" ry="9.8"/>
	<path class="st1_family-meal-8" d="M292.5,257.3c-7.3,0-13.2-5.2-13.2-11.6s5.9-11.6,13.2-11.6s13.2,5.2,13.2,11.6S299.8,257.3,292.5,257.3z&#10;&#9;&#9; M292.5,237.8c-5.2,0-9.5,3.5-9.5,7.9s4.2,7.9,9.5,7.9s9.5-3.6,9.5-7.9S297.7,237.8,292.5,237.8z"/>
	<ellipse class="st4_family-meal-8" cx="209.4" cy="245.7" rx="11.3" ry="9.8"/>
	<path class="st1_family-meal-8" d="M209.4,257.3c-7.3,0-13.2-5.2-13.2-11.6s5.9-11.6,13.2-11.6s13.2,5.2,13.2,11.6S216.7,257.3,209.4,257.3z&#10;&#9;&#9; M209.4,237.8c-5.2,0-9.5,3.5-9.5,7.9s4.2,7.9,9.5,7.9s9.5-3.5,9.5-7.9S214.6,237.8,209.4,237.8z"/>
	<path class="st4_family-meal-8" d="M275.4,216.8c-4.9-0.1-9.7-1.1-14.2-2.8c-7-2.8-13-7.1-18.5-11.6c-3.6,8.6-13.9,13.6-23.3,17.9&#10;&#9;&#9;c-2,0.9-4.6,1.8-6.4,0.6c-2,7.2-2,15-2,22.4c0,18.8,18,34.1,40.2,34.1s40.1-15.3,40.1-34.1v-26.5&#10;&#9;&#9;C285.9,216.8,280.6,217.1,275.4,216.8z"/>
	<path class="st1_family-meal-8" d="M251,279.3c-23.2,0-42-16.1-42-36c0-6.8,0-15.2,2.1-22.9c0.2-0.6,0.6-1,1.1-1.2c0.6-0.2,1.2-0.1,1.7,0.2&#10;&#9;&#9;c0.8,0.5,2.4,0.3,4.6-0.8c9.9-4.5,19.1-9.2,22.4-17c0.2-0.5,0.7-0.9,1.2-1.1c0.6-0.1,1.2,0,1.6,0.4c5,4,11,8.5,18.1,11.3&#10;&#9;&#9;c4.4,1.6,9,2.5,13.6,2.6c3.4,0.2,6.8,0.1,10.2,0.1c1.8,0,3.6-0.1,5.4-0.1c1,0,1.9,0.9,1.9,1.9c0,0,0,0,0,0v26.5&#10;&#9;&#9;C293,263.2,274.1,279.3,251,279.3z M214.2,223.4c-1.5,6.7-1.5,14-1.5,20c0,17.8,17.2,32.3,38.3,32.3s38.3-14.5,38.3-32.3v-24.7&#10;&#9;&#9;c-1.2,0-2.3,0-3.5,0c-3.4,0.1-7,0.1-10.5-0.1l0,0c-5.1-0.1-10.1-1.1-14.8-2.9c-6.2-2.6-12-6.2-17.2-10.4&#10;&#9;&#9;c-4.4,7.6-13.5,12.3-23.2,16.8C218.3,223,216.2,223.5,214.2,223.4L214.2,223.4z"/>
	<path class="st1_family-meal-8" d="M224.1,327.7c-1,0-1.9-0.8-1.9-1.9l0,0V289c0-1,0.8-1.8,1.9-1.8c1,0,1.8,0.8,1.8,1.8v36.9&#10;&#9;&#9;C226,326.9,225.2,327.7,224.1,327.7C224.1,327.7,224.1,327.7,224.1,327.7z"/>
	<path class="st1_family-meal-8" d="M278.1,327.7c-1,0-1.9-0.8-1.9-1.9l0,0V289c0.1-1,1-1.8,2-1.7c0.9,0.1,1.7,0.8,1.7,1.7v36.9&#10;&#9;&#9;C280,326.9,279.2,327.7,278.1,327.7C278.2,327.7,278.2,327.7,278.1,327.7z"/>
	<circle class="st1_family-meal-8" cx="232.3" cy="236.3" r="3.8"/>
	<circle class="st1_family-meal-8" cx="271.4" cy="236.3" r="3.8"/>
	<path class="st1_family-meal-8" d="M251.1,250.9c-1.3,0-2.6-0.1-3.8-0.3c-1-0.2-1.7-1.1-1.5-2.1c0.2-1,1.1-1.7,2.1-1.5l0,0&#10;&#9;&#9;c1.6,0.3,3.2,0.3,4.8,0.1c-0.7-2.8-1.7-5.6-3.1-8.1c-0.5-0.9-0.1-2,0.8-2.5s2-0.1,2.5,0.8c1.7,3.3,4.4,9.1,3.2,11.7&#10;&#9;&#9;c-0.3,0.8-1,1.3-1.8,1.5C253.2,250.8,252.1,250.9,251.1,250.9z"/>
	<path class="st1_family-meal-8" d="M240,226.2L240,226.2h-18.1c-1.6-0.1-2.9-1.5-2.8-3.1c0.1-1.5,1.3-2.7,2.8-2.8l0,0H240&#10;&#9;&#9;c1.6,0.1,2.9,1.5,2.8,3.1C242.7,225,241.5,226.1,240,226.2L240,226.2z"/>
	<path class="st1_family-meal-8" d="M265.8,226.7c-1.6,0-2.9-1.4-2.9-3c0-1.5,1.2-2.7,2.7-2.9l18.1-0.9c1.6,0,3,1.3,3,2.9c0,1.6-1.2,2.9-2.7,3&#10;&#9;&#9;l-18.1,0.9L265.8,226.7z"/>
	<path class="st1_family-meal-8" d="M251.4,264.9H251c-1.9-0.1-3.6-0.9-4.9-2.2c-0.6-0.8-0.5-2,0.3-2.6c0.7-0.6,1.8-0.5,2.5,0.2&#10;&#9;&#9;c0.6,0.6,1.5,1,2.3,1c1.5,0.1,3.1-0.8,4.9-2.4c0.8-0.7,1.9-0.6,2.6,0.1c0.7,0.7,0.6,1.9-0.1,2.6&#10;&#9;&#9;C256.3,263.8,253.8,264.9,251.4,264.9z"/>
	<path class="st3_family-meal-8" d="M235.5,300.4c1.3-5.2,6.6-8.4,11.8-7c1,0.2,1.9,0.6,2.7,1.1c4.1-4.1,10.6-4.8,15.4-1.6&#10;&#9;&#9;c3.3-1.4,7.2-0.5,9.6,2.1c2.4,2.7,3.5,6.2,3,9.8c-0.1,1.4-0.6,2.8-1.4,4c-1.7,2.2-4.7,2.7-7.4,3c-11.2,1-22.6,1.2-33.8,0.5&#10;&#9;&#9;c-2.3,0-4.5-0.4-6.6-1.4c-3.3-1.8-3.8-4.9-1.4-7.5C228.1,302.6,235.7,299.5,235.5,300.4z"/>
	<path class="st1_family-meal-8" d="M250.1,314.5c-4.6,0-9.6-0.1-14.9-0.4c-2.7-0.1-5.1-0.3-7.4-1.6c-1.9-0.9-3.3-2.7-3.8-4.8&#10;&#9;&#9;c-0.3-2.1,0.4-4.1,1.9-5.6c2.5-1.7,5.3-2.9,8.1-3.6c2.3-6,9.1-8.9,15-6.6c0.2,0.1,0.4,0.1,0.5,0.2c4.5-3.6,10.8-4.2,15.9-1.4&#10;&#9;&#9;c3.9-1.1,8,0,10.8,2.9c2.7,3.1,4,7.2,3.5,11.2c-0.1,1.8-0.7,3.5-1.8,4.9c-2,2.6-5.4,3.3-8.7,3.7C263,314.2,256.6,314.5,250.1,314.5&#10;&#9;&#9;z M234.9,302.1c-2.2,0.7-4.3,1.5-6.3,2.7c-0.6,0.6-0.9,1.5-0.9,2.4c0.3,1,1,1.8,1.9,2.2c1.8,0.8,3.8,1.2,5.8,1.1&#10;&#9;&#9;c11.2,0.7,22.4,0.5,33.5-0.5c2.5-0.2,4.9-0.7,6.1-2.2c0.6-0.9,1-2,1-3.1c0.4-3-0.5-6-2.5-8.3c-1.9-2.1-4.9-2.8-7.5-1.8&#10;&#9;&#9;c-0.6,0.3-1.3,0.2-1.8-0.1c-4.1-2.7-9.6-2.1-13.1,1.3c-0.6,0.6-1.6,0.8-2.3,0.3c-3.7-2.3-8.6-1.1-10.8,2.6&#10;&#9;&#9;c-0.4,0.7-0.7,1.4-0.9,2.1l0,0c-0.2,1-1.3,1.6-2.2,1.3c0,0,0,0,0,0L234.9,302.1z"/>
	<path class="st5_family-meal-8" d="M289.9,304.6c0,7.4-16.4,13.4-36.7,13.4s-36.7-6-36.7-13.4H289.9z"/>
	<path class="st1_family-meal-8" d="M253.2,319.9c-18.7,0-38.6-5.4-38.6-15.3c0-1,0.8-1.9,1.8-1.9c0,0,0,0,0,0h73.4c1,0,1.9,0.8,1.9,1.9l0,0&#10;&#9;&#9;C291.8,314.6,271.9,319.9,253.2,319.9z M218.9,306.5c2.8,4.9,16.1,9.7,34.3,9.7s31.6-4.8,34.3-9.7H218.9z"/>
	<path class="st4_family-meal-8" d="M213,305.7c-2.8,1.5-4.5,4.3-4.7,7.5c-0.1,1.3,0.3,2.6,1.2,3.5c0.6,0.5,1.2,0.8,1.9,1c3.7,1.2,7.8,1.2,11.5,0&#10;&#9;&#9;c2.2-0.8,4.4-2.1,5.3-4.1c0.8-1.7,0.6-3.6-0.4-5.1C225.1,304.2,217.3,303.3,213,305.7z"/>
	<path class="st1_family-meal-8" d="M217.1,320.4c-2.2,0-4.3-0.3-6.4-1c-0.9-0.3-1.8-0.7-2.5-1.3c-1.3-1.3-2-3.1-1.8-4.9c0.2-3.8,2.4-7.2,5.7-9&#10;&#9;&#9;c5-2.8,13.9-1.8,17.3,3.3c1.4,2.1,1.6,4.7,0.5,7c-1.4,2.8-4.2,4.3-6.4,5C221.4,320.1,219.3,320.4,217.1,320.4z M218.6,306.2&#10;&#9;&#9;c-1.6,0-3.2,0.3-4.7,1.1l0,0c-2.2,1.2-3.6,3.4-3.8,5.9c-0.1,0.7,0.1,1.4,0.6,2c0.4,0.3,0.8,0.5,1.2,0.6c3.4,1.1,7,1.1,10.3,0&#10;&#9;&#9;c1.2-0.4,3.4-1.4,4.3-3.1c0.5-1.1,0.4-2.3-0.2-3.3C224.9,307.3,221.7,306.2,218.6,306.2z M213,305.7L213,305.7z"/>
	<path class="st4_family-meal-8" d="M294,305.7c2.7,1.5,4.5,4.3,4.7,7.5c0.1,1.3-0.3,2.6-1.2,3.5c-0.6,0.5-1.2,0.8-1.9,1c-3.7,1.2-7.8,1.2-11.5,0&#10;&#9;&#9;c-2.2-0.8-4.4-2.1-5.3-4.1c-0.8-1.7-0.6-3.6,0.4-5.1C281.9,304.2,289.8,303.3,294,305.7z"/>
	<path class="st1_family-meal-8" d="M289.9,320.4c-2.2,0-4.3-0.3-6.3-1c-2.2-0.7-5.1-2.2-6.4-5c-1.1-2.3-0.9-4.9,0.5-7c3.4-5.1,12.3-6.1,17.3-3.3&#10;&#9;&#9;l0,0c3.3,1.8,5.5,5.2,5.7,9c0.2,1.8-0.5,3.7-1.8,4.9c-0.7,0.6-1.6,1.1-2.5,1.3C294.2,320,292,320.4,289.9,320.4z M288.4,306.2&#10;&#9;&#9;c-3,0-6.3,1.1-7.7,3.2c-0.6,1-0.7,2.2-0.2,3.3c0.8,1.7,3,2.7,4.2,3.1c3.4,1.1,7,1.1,10.3,0c0.5-0.1,0.9-0.3,1.2-0.6&#10;&#9;&#9;c0.5-0.6,0.7-1.3,0.6-2c-0.2-2.5-1.6-4.7-3.8-5.9l0,0C291.6,306.6,290,306.2,288.4,306.2z"/>
</g>
<g id="table_family-meal-8">
	<path class="st3_family-meal-8" d="M123.9,319.2h263.7c2.4,0,4.3,1.9,4.3,4.3v7.4c0,2.4-1.9,4.3-4.3,4.3H123.9c-2.4,0-4.3-1.9-4.3-4.3v-7.4&#10;&#9;&#9;C119.6,321.1,121.5,319.2,123.9,319.2z"/>
	<path class="st1_family-meal-8" d="M383.9,337H127.6c-5.4-0.2-9.7-4.7-9.5-10.2c0.2-5.2,4.3-9.4,9.5-9.5h256.3c5.4,0.2,9.7,4.7,9.5,10.2&#10;&#9;&#9;C393.3,332.7,389.1,336.8,383.9,337z M127.6,321c-3.4,0.1-6,3-5.9,6.4c0.1,3.2,2.7,5.8,5.9,5.9h256.3c3.4-0.1,6-3,5.9-6.4&#10;&#9;&#9;c-0.1-3.2-2.7-5.8-5.9-5.9H127.6z"/>
	<rect x="130" y="335.2" class="st3_family-meal-8" width="251.5" height="38.4"/>
	<path class="st1_family-meal-8" d="M381.5,375.4H130c-1,0-1.9-0.8-1.9-1.9l0,0v-38.4c0-1,0.8-1.9,1.8-1.9h0h251.5c1,0,1.9,0.8,1.9,1.9l0,0v38.4&#10;&#9;&#9;C383.3,374.6,382.5,375.4,381.5,375.4L381.5,375.4z M131.9,371.7h247.8V337H131.9L131.9,371.7z"/>
</g>
</svg>