<svg version="1.1" id="Layer_1" xmlns="http://www.w3.org/2000/svg" xmlns:xlink="http://www.w3.org/1999/xlink" x="0px" y="0px" viewBox="0 0 500 500" style="width: 188px;" xml:space="preserve" data-imageid="chef-41" imageName="Chef" class="illustrations_image">
<style type="text/css">
	.st0_chef-41{fill:#FFFFFF;}
	.st1_chef-41{fill:#D1D3D4;}
	.st2_chef-41{fill:#231F20;}
	.st3_chef-41{fill:#68E1FD;}
	.st4_chef-41{fill:none;}
</style>
<g id="Background_chef-41">
	<rect x="99.8" y="267.5" class="st0_chef-41" width="300.4" height="16.6"/>
	<path class="st1_chef-41" d="M400.2,284.8H99.8c-0.4,0-0.7-0.3-0.7-0.7l0,0v-16.6c0-0.4,0.3-0.7,0.7-0.7h0h300.4c0.4,0,0.7,0.3,0.7,0.7v0&#10;&#9;&#9;v16.6C400.9,284.5,400.6,284.8,400.2,284.8L400.2,284.8z M100.5,283.4h299v-15.2h-299V283.4z"/>
	<rect x="108.4" y="284.1" class="st0_chef-41" width="283.2" height="103.6"/>
	<path class="st1_chef-41" d="M391.6,388.4H108.4c-0.4,0-0.7-0.3-0.7-0.7l0,0V284.1c0-0.4,0.3-0.7,0.7-0.7h0h283.2c0.4,0,0.7,0.3,0.7,0.7v0&#10;&#9;&#9;v103.6C392.3,388,392,388.4,391.6,388.4z M109.1,387h281.8V284.8H109.1V387z"/>
	<path class="st1_chef-41" d="M208,377.4h-84c-0.4,0-0.7-0.3-0.7-0.7l0,0v-81.6c0-0.4,0.3-0.7,0.7-0.7h0h84c0.4,0,0.7,0.3,0.7,0.7l0,0v81.6&#10;&#9;&#9;C208.7,377.1,208.4,377.4,208,377.4C208,377.4,208,377.4,208,377.4z M124.8,376h82.6v-80.2h-82.6V376z"/>
	<path class="st1_chef-41" d="M292,377.4h-84c-0.4,0-0.7-0.3-0.7-0.7l0,0v-81.6c0-0.4,0.3-0.7,0.7-0.7c0,0,0,0,0,0h84c0.4,0,0.7,0.3,0.7,0.7&#10;&#9;&#9;v0v81.6C292.7,377.1,292.4,377.4,292,377.4L292,377.4z M208.7,376h82.6v-80.2h-82.6V376z"/>
	<path class="st1_chef-41" d="M375.9,377.4H292c-0.4,0-0.7-0.3-0.7-0.7v0v-81.6c0-0.4,0.3-0.7,0.7-0.7h0h84c0.4,0,0.7,0.3,0.7,0.7v0v81.6&#10;&#9;&#9;C376.7,377.1,376.4,377.4,375.9,377.4C376,377.4,376,377.4,375.9,377.4z M292.7,376h82.6v-80.2h-82.6V376z"/>
	<rect x="313" y="231.9" transform="matrix(0.1692 -0.9856 0.9856 0.1692 21.16 512.5663)" class="st0_chef-41" width="3.3" height="23.6"/>
	<path class="st1_chef-41" d="M326,248h-0.1l-23.2-4c-0.2,0-0.3-0.1-0.5-0.3c-0.1-0.2-0.2-0.3-0.1-0.5l0.5-3.2c0.1-0.4,0.4-0.6,0.8-0.6&#10;&#9;&#9;c0,0,0,0,0,0l23.3,4c0.2,0,0.3,0.1,0.5,0.3c0.1,0.2,0.2,0.3,0.1,0.5l-0.6,3.2C326.6,247.8,326.3,248,326,248z M303.5,242.7&#10;&#9;&#9;l21.9,3.8l0.3-1.9l-21.9-3.8L303.5,242.7z"/>
	<path class="st0_chef-41" d="M309.8,245.9l-19.3-3.3c-1.1-0.2-1.8-1.2-1.6-2.3l0.3-1.8c0.2-1.1,1.2-1.8,2.3-1.6l19.3,3.3&#10;&#9;&#9;c1.1,0.2,1.8,1.2,1.6,2.3l-0.3,1.8C311.9,245.3,310.9,246.1,309.8,245.9z"/>
	<path class="st1_chef-41" d="M309.5,246.5c-0.2,0-0.4,0-0.6-0.1l-17.7-3c-1.9-0.3-3.2-2.1-2.9-4.1c0,0,0,0,0,0v-0.2&#10;&#9;&#9;c0.3-1.9,2.2-3.2,4.1-2.9l17.7,3c1.9,0.3,3.2,2.1,2.9,4.1c0,0,0,0,0,0v0.2C312.7,245.2,311.2,246.5,309.5,246.5z M291.8,237.6&#10;&#9;&#9;c-1,0-1.9,0.8-2.1,1.8v0.2c-0.1,0.6,0,1.1,0.4,1.6c0.3,0.5,0.8,0.8,1.4,0.9l0,0l17.7,3c1.2,0.2,2.3-0.6,2.5-1.7c0,0,0,0,0,0v-0.2&#10;&#9;&#9;c0.1-0.6,0-1.1-0.4-1.6c-0.3-0.5-0.8-0.8-1.4-0.9l-17.7-3C292.1,237.6,292,237.6,291.8,237.6L291.8,237.6z"/>
	<path class="st0_chef-41" d="M381.8,267.5h-66.3c-1.3,0-2.3-1-2.3-2.3v-4.7c0-1.3,1-2.3,2.3-2.3h66.3c1.3,0,2.3,1,2.3,2.3v4.7&#10;&#9;&#9;C384.1,266.5,383.1,267.5,381.8,267.5z"/>
	<path class="st1_chef-41" d="M380.9,268.2h-64.5c-2.1,0-3.9-1.7-3.9-3.9v-2.9c0-2.1,1.7-3.9,3.9-3.9l0,0h64.5c2.1,0,3.9,1.7,3.9,3.9l0,0&#10;&#9;&#9;v2.9C384.8,266.5,383,268.2,380.9,268.2z M316.4,259c-1.4,0-2.5,1.1-2.5,2.5c0,0,0,0,0,0v2.9c0,1.4,1.1,2.5,2.5,2.5h64.5&#10;&#9;&#9;c1.4,0,2.5-1.1,2.5-2.5v-2.9c0-1.4-1.1-2.5-2.5-2.5H316.4z"/>
	<polygon class="st0_chef-41" points="370.8,258.2 366,251.3 363.1,251.3 366,258.2 &#9;"/>
	<path class="st1_chef-41" d="M370.8,258.9H366c-0.3,0-0.5-0.2-0.6-0.4l-2.9-6.9c-0.2-0.4,0-0.8,0.4-0.9c0.1,0,0.2-0.1,0.3-0.1h2.9&#10;&#9;&#9;c0.2,0,0.4,0.1,0.6,0.3l4.8,6.9c0.2,0.3,0.2,0.8-0.2,1C371.1,258.9,371,258.9,370.8,258.9L370.8,258.9z M366.5,257.5h3l-3.8-5.5&#10;&#9;&#9;h-1.5L366.5,257.5z"/>
	<polygon class="st0_chef-41" points="325.7,258.3 329.6,252.6 332,252.6 329.6,258.3 &#9;"/>
	<path class="st1_chef-41" d="M329.6,259h-4c-0.3,0-0.5-0.1-0.6-0.4c-0.1-0.2-0.1-0.5,0-0.7l4-5.7c0.1-0.2,0.3-0.3,0.6-0.3h2.4&#10;&#9;&#9;c0.2,0,0.5,0.1,0.6,0.3c0.1,0.2,0.2,0.4,0.1,0.7l-2.4,5.7C330.2,258.8,329.9,259,329.6,259z M327,257.6h2.2l1.8-4.2h-1L327,257.6z"/>
	<rect x="346.8" y="252.6" class="st0_chef-41" width="2.9" height="5.7"/>
	<path class="st1_chef-41" d="M349.7,259h-2.9c-0.4,0-0.7-0.3-0.7-0.7v0v-5.6c0-0.4,0.3-0.7,0.7-0.7l0,0h2.9c0.4,0,0.7,0.3,0.7,0.7&#10;&#9;&#9;c0,0,0,0,0,0v5.6C350.4,258.7,350.1,259,349.7,259L349.7,259z M347.5,257.6h1.5v-4.2h-1.5V257.6z"/>
	<path class="st0_chef-41" d="M372.1,252.6h-47.8c-1.8,0-3.2-1.5-3.2-3.2v-9l0,0h54.3l0,0v9C375.4,251.2,373.9,252.6,372.1,252.6z"/>
	<path class="st1_chef-41" d="M370.9,253.3h-45.2c-2.9,0-5.3-2.4-5.3-5.3v-7.7c0-0.4,0.3-0.7,0.7-0.7l0,0h54.3c0.4,0,0.7,0.3,0.7,0.7&#10;&#9;&#9;c0,0,0,0,0,0v7.7C376.1,251,373.8,253.3,370.9,253.3z M321.8,241v7c0,2.1,1.7,3.9,3.9,3.9h45.2c2.1,0,3.9-1.7,3.9-3.9v-7H321.8z"/>
	<path class="st0_chef-41" d="M124.2,236.3H179l0,0v26.5c0,2.6-2.1,4.7-4.7,4.7l0,0h-45.4c-2.6,0-4.7-2.1-4.7-4.7l0,0&#10;&#9;&#9;C124.2,262.8,124.2,236.3,124.2,236.3z"/>
	<path class="st1_chef-41" d="M172.4,268.2h-41.7c-4,0-7.3-3.2-7.3-7.3v-24.6c0-0.4,0.3-0.7,0.7-0.7H179c0.4,0,0.7,0.3,0.7,0.7V261&#10;&#9;&#9;C179.7,265,176.4,268.2,172.4,268.2z M124.9,237v24c0,3.2,2.6,5.9,5.9,5.9h41.7c3.2,0,5.9-2.6,5.9-5.9v-24H124.9z"/>
	<path class="st0_chef-41" d="M151.6,225.5c-16.8,0-27.4,4.9-27.4,10.9H179C179,230.3,168.4,225.5,151.6,225.5z"/>
	<path class="st1_chef-41" d="M179,237h-54.8c-0.4,0-0.7-0.3-0.7-0.7c0-6.8,11.6-11.6,28.1-11.6s28.1,4.8,28.1,11.6&#10;&#9;&#9;C179.7,236.7,179.4,237,179,237C179,237,179,237,179,237z M124.9,235.6h53.3c-0.8-4.8-9.9-9.5-26.6-9.5S125.8,230.8,124.9,235.6&#10;&#9;&#9;L124.9,235.6z"/>
	<path class="st0_chef-41" d="M119.3,238.6h4.9l0,0v2.4l0,0h-4.9c-0.5,0-0.9-0.4-0.9-0.9v-0.7C118.4,239,118.8,238.7,119.3,238.6&#10;&#9;&#9;L119.3,238.6z"/>
	<path class="st1_chef-41" d="M124.2,241.8h-4.5c-1.1,0-1.9-0.9-1.9-1.9c0-1.1,0.9-1.9,1.9-1.9h4.5c0.4,0,0.7,0.3,0.7,0.7v2.4&#10;&#9;&#9;C124.9,241.5,124.6,241.8,124.2,241.8z M119.6,239.3c-0.3,0-0.5,0.2-0.5,0.5l0,0c0,0.3,0.2,0.5,0.5,0.5l0,0h3.8v-1L119.6,239.3z"/>
	<path class="st0_chef-41" d="M179,238.6h4.9c0.5,0,0.9,0.4,0.9,0.9v0.7c0,0.5-0.4,0.9-0.9,0.9H179l0,0V238.6L179,238.6z"/>
	<path class="st1_chef-41" d="M183.6,241.8H179c-0.4,0-0.7-0.3-0.7-0.7v-2.4c0-0.4,0.3-0.7,0.7-0.7h4.6c1.1,0,1.9,0.9,1.9,1.9&#10;&#9;&#9;C185.5,240.9,184.6,241.8,183.6,241.8L183.6,241.8z M179.7,240.4h3.9c0.3,0,0.5-0.2,0.5-0.5c0,0,0,0,0,0c0-0.3-0.2-0.5-0.5-0.5&#10;&#9;&#9;h-3.9V240.4z"/>
	<path class="st1_chef-41" d="M159.2,228.9H144c-0.4,0-0.7-0.3-0.7-0.7v-2.4c0-3.4,2.7-6.1,6.1-6.1h4.3c3.4,0,6.1,2.8,6.1,6.1v2.4&#10;&#9;&#9;C159.9,228.6,159.6,228.9,159.2,228.9z M144.7,227.5h13.8v-1.7c0-2.6-2.1-4.7-4.7-4.8h-4.3c-2.6,0-4.7,2.1-4.7,4.8L144.7,227.5z"/>
</g>
<g id="Character_chef-41">
	<path class="st0_chef-41" d="M218,113.3c-0.7-0.9-1.8-1.5-3-1.5c-0.5,0-1,0.2-1.4,0.5c-0.4,0.5-0.7,1.1-0.7,1.8c-0.3,1.7-0.3,3.5,0.1,5.2&#10;&#9;&#9;c0.4,1.7,1.4,3.3,2.8,4.4c1.5,1.2,3.6,1.4,4.4-0.7C221.5,119.4,220.4,116,218,113.3z"/>
	<path class="st2_chef-41" d="M218.1,125.2c-1,0-2-0.4-2.7-1c-1.5-1.2-2.5-2.9-3-4.8c-0.4-1.8-0.5-3.7-0.1-5.5c0.1-0.8,0.4-1.5,0.9-2.1&#10;&#9;&#9;c0.5-0.5,1.2-0.8,1.9-0.8c1.4,0,2.7,0.7,3.6,1.8l0,0c2.7,3.2,3.5,6.9,2.2,10.4c-0.3,0.9-1,1.6-1.9,1.9&#10;&#9;&#9;C218.6,125.1,218.3,125.2,218.1,125.2z M215.1,112.4L215.1,112.4c-0.4,0-0.8,0.1-1.1,0.3c-0.3,0.4-0.5,0.9-0.5,1.3&#10;&#9;&#9;c-0.3,1.6-0.3,3.3,0.1,4.9c0.4,1.6,1.3,3,2.5,4c0.6,0.6,1.5,0.8,2.3,0.7c0.5-0.2,0.9-0.6,1-1.1c1.5-4-0.6-7.3-2-9&#10;&#9;&#9;C216.8,113,216,112.5,215.1,112.4L215.1,112.4z"/>
	<path class="st0_chef-41" d="M300.5,389.5c0.3,0.8,8.9,14.6,8.9,14.6s9.2,2.6,16-3.6l-7.5-17.7L300.5,389.5z"/>
	<path class="st2_chef-41" d="M314.1,405.5c-1.6,0-3.3-0.2-4.9-0.6c-0.2,0-0.3-0.1-0.4-0.3c-2-3.3-8.7-13.9-9-14.8c-0.1-0.4,0.1-0.7,0.4-0.9&#10;&#9;&#9;l17.5-6.6c0.4-0.1,0.7,0,0.9,0.4l7.5,17.7c0.1,0.3,0.1,0.6-0.2,0.8C322.7,404,318.5,405.5,314.1,405.5z M309.9,403.6&#10;&#9;&#9;c1.5,0.3,9,1.7,14.7-3.1l-7-16.6l-16.1,6.1C302.8,392.1,307,399,309.9,403.6L309.9,403.6z M300.5,389.6L300.5,389.6z"/>
	<path class="st2_chef-41" d="M224.8,403.8l-22.1,16.6c0.2,6.4,14,4.4,26.7,1.1s15.1-6,15.1-6l-0.5-11L224.8,403.8z"/>
	<path class="st2_chef-41" d="M210.7,425.4c-3.2,0-5.6-0.5-7-1.6c-1.1-0.8-1.7-2-1.7-3.3c0-0.2,0.1-0.4,0.3-0.6l22.1-16.6&#10;&#9;&#9;c0.1-0.1,0.3-0.2,0.4-0.1l19.2,0.7c0.4,0,0.7,0.3,0.7,0.7l0.5,11c0,0.2-0.1,0.4-0.2,0.5c-0.1,0.1-2.8,2.9-15.5,6.2&#10;&#9;&#9;C221.6,424.3,215.3,425.4,210.7,425.4z M203.4,420.8c0.1,0.8,0.5,1.4,1.1,1.9c3,2.2,11.8,1.6,24.7-1.8c10.4-2.7,13.8-5,14.6-5.7&#10;&#9;&#9;l-0.5-10.1l-18.3-0.7L203.4,420.8z"/>
	<path class="st0_chef-41" d="M242.9,385.5l1.1,18.9c0,0-11.1,5.2-19.2-0.7l-3.9-22.2L242.9,385.5z"/>
	<path class="st2_chef-41" d="M234.1,407.3c-3.5,0.1-6.9-1-9.7-3c-0.1-0.1-0.2-0.3-0.3-0.4l-3.9-22.2c0-0.2,0-0.5,0.2-0.6&#10;&#9;&#9;c0.2-0.2,0.4-0.2,0.6-0.2l22.1,4c0.3,0.1,0.6,0.3,0.6,0.6l1.1,18.9c0,0.3-0.1,0.6-0.4,0.7C241.1,406.5,237.6,407.3,234.1,407.3z&#10;&#9;&#9; M225.4,403.4c6.8,4.8,15.8,1.5,17.9,0.6l-1-17.9l-20.6-3.7L225.4,403.4z"/>
	<path class="st2_chef-41" d="M207.8,249.9l62.1-13.6l53,152.8c-6.6,5.6-15.7,7.2-23.9,4.4l-55-103.3l2.6,104.5c-11.3,5.6-25.8-0.2-25.8-0.2&#10;&#9;&#9;c-10.5-31-19.5-144.6-19.5-144.6"/>
	<path class="st2_chef-41" d="M235.1,397.8c-5-0.1-9.9-1-14.6-2.7c-0.2-0.1-0.3-0.2-0.4-0.4c-10.4-30.7-19.4-143.6-19.5-144.7&#10;&#9;&#9;c0-0.4,0.3-0.7,0.6-0.7c0.4,0,0.7,0.3,0.7,0.6c0.1,1.1,9,113.2,19.4,144.1c2.1,0.8,14.6,5,24.5,0.3l-2.6-104c0-0.4,0.3-0.7,0.7-0.7&#10;&#9;&#9;c0.3,0,0.5,0.1,0.6,0.4l54.9,103c7.7,2.6,16.2,1.1,22.6-4l-52.6-151.8l-61.5,13.4c-0.4,0.1-0.7-0.2-0.8-0.5&#10;&#9;&#9;c-0.1-0.4,0.1-0.7,0.5-0.8c0,0,0,0,0,0l62.1-13.6c0.3-0.1,0.7,0.1,0.8,0.4l53,152.8c0.1,0.3,0,0.6-0.2,0.8&#10;&#9;&#9;c-6.9,5.7-16.2,7.4-24.6,4.5c-0.1-0.1-0.3-0.2-0.4-0.3l-53.6-100.7l2.5,101.5c0,0.3-0.1,0.5-0.4,0.6&#10;&#9;&#9;C243.2,397,239.2,397.9,235.1,397.8z"/>
	<path class="st2_chef-41" d="M309.5,404.2c0,0,2.5,10.1,3.4,11.2s34.4,7.8,36.1,3.8s-23.5-18.6-23.5-18.6S316.5,405.4,309.5,404.2z"/>
	<path class="st2_chef-41" d="M344,421.2c-9.6,0-30.4-3.9-31.6-5.3c-1-1.2-3.2-9.8-3.6-11.5c-0.1-0.4,0.1-0.7,0.5-0.8c0.1,0,0.2,0,0.3,0&#10;&#9;&#9;c6.7,1.1,15.5-3.5,15.6-3.5c0.2-0.1,0.5-0.1,0.7,0c6,3.5,25.6,15.4,23.8,19.5c-0.3,0.8-1.2,1.2-2.8,1.5&#10;&#9;&#9;C345.9,421.1,344.9,421.2,344,421.2z M310.4,405c1.1,4.6,2.5,9.4,3,10c1.5,1,28.2,6.2,34.1,4.5c0.5-0.1,0.7-0.3,0.8-0.4&#10;&#9;&#9;c0.7-1.6-7.9-8.8-22.9-17.6C323.8,402.2,316.6,405.6,310.4,405z"/>
	<path class="st0_chef-41" d="M252.6,119.7c1.3-3.7,1.6-7.7,0.8-11.6c-1.4-5.8-9.3-12-14.9-11.6s-20.3,7.2-21,9.3s-1.9,18.3,1.2,20.4&#10;&#9;&#9;C221.9,128.4,250.5,126.5,252.6,119.7z"/>
	<path class="st2_chef-41" d="M225.3,127.8c-3.4,0-6.1-0.3-7-0.9c-3.8-2.5-2.1-19.4-1.5-21.2c0.8-2.5,16-9.4,21.6-9.8&#10;&#9;&#9;c5.9-0.4,14.1,5.9,15.6,12.1c0.8,4,0.6,8.1-0.8,12c-0.6,1.8-2.6,3.3-6.1,4.6C241.2,126.7,231.8,127.8,225.3,127.8z M239.1,97.3&#10;&#9;&#9;h-0.5c-5.6,0.4-19.8,7.2-20.4,8.8c-0.6,3.3-0.8,6.6-0.8,10c0,7.8,1.3,9.3,1.7,9.6c2,1.3,18.6,0.8,27.5-2.5c3.1-1.1,4.9-2.4,5.3-3.7&#10;&#9;&#9;l0,0c1.2-3.6,1.5-7.4,0.7-11.2C251.4,103,244.2,97.3,239.1,97.3z"/>
	<path class="st0_chef-41" d="M221.1,95c0,0-3.3,3.2-8.9,0s-4.4-9.7-2.8-12s6.4-6.7,10.9-5.6s6,2.3,6,2.3s3.7-2.2,11.9-2.4&#10;&#9;&#9;s10.9,4.1,10.9,4.1s6.6-2.6,10.6,1.1c3.6,3.1,4.2,8.5,1.3,12.3c-2.5,3-12.9,2.2-12.9,2.2L221.1,95z"/>
	<path class="st2_chef-41" d="M251.1,97.9c-1.5,0-2.7-0.1-3.1-0.1l-26.6-2c-0.9,0.7-4.3,2.9-9.4-0.2c-2.2-1.2-3.7-3.3-4.3-5.8&#10;&#9;&#9;c-0.5-2.5-0.1-5.1,1.2-7.2c1.7-2.4,6.8-7.1,11.7-5.9c2.1,0.4,4,1.2,5.9,2.2c1.2-0.6,4.9-2.2,11.8-2.3s10.1,2.8,11.1,4&#10;&#9;&#9;c1.7-0.6,7.1-2,10.9,1.5c3.9,3.4,4.5,9.2,1.3,13.3C259.7,97.5,254.5,97.9,251.1,97.9z M221.1,94.3L221.1,94.3l27,2.1&#10;&#9;&#9;c2.8,0.2,10.5,0.3,12.4-2c2.7-3.5,2.2-8.5-1.2-11.4c-3.7-3.4-9.9-1-9.9-1c-0.3,0.1-0.7,0-0.9-0.3c-0.1-0.2-2.6-3.9-10.3-3.8&#10;&#9;&#9;c-8,0.2-11.5,2.3-11.6,2.3c-0.3,0.1-0.6,0.1-0.8-0.1c0,0-1.5-1.2-5.7-2.2s-8.7,3.2-10.2,5.3c-1.1,1.8-1.4,4-1,6.1&#10;&#9;&#9;c0.4,2.1,1.8,3.8,3.6,4.9c5,3,8,0.2,8,0.2C220.7,94.4,220.9,94.3,221.1,94.3L221.1,94.3z"/>
	<path class="st0_chef-41" d="M226.6,135.7l-2.6,13.6c0,0,4.4,8.5,13.3,6.2s10.3-9.2,10.3-9.2l0.6-14.5l0.4-8.9c0.2-0.9,0.2-1.8,0.1-2.8&#10;&#9;&#9;c-0.3-0.9-1.4-1.6-2-2.3c-0.8-1.1-1.6-2.3-2.2-3.6c-1.3-2.5-2.2-5.1-2.8-7.9c-3.4,0.3-6.8-0.7-9.5-2.8c-1,1.7,2,3.3,1.9,5.3&#10;&#9;&#9;c-3.3-0.5-7.5-1.6-9.7-4c-1.1-0.1-5.6,7.9-6.2,11c-0.9,4.1-1,8.4-0.3,12.5C219.1,135.2,226.6,135.7,226.6,135.7z"/>
	<path class="st2_chef-41" d="M234.4,156.5c-7.2,0-10.9-6.9-10.9-6.9c-0.1-0.1-0.1-0.3-0.1-0.4l2.4-12.8c-2.1-0.4-7.5-1.9-8.6-7.9&#10;&#9;&#9;c-0.7-4.2-0.6-8.6,0.3-12.8c0.7-2.4,1.7-4.8,3-6.9c2.7-4.8,3.6-4.7,4-4.6c0.2,0,0.3,0.1,0.4,0.2c1.6,1.6,4.4,2.8,8.4,3.6&#10;&#9;&#9;c-0.2-0.4-0.5-0.9-0.8-1.3c-0.7-1-1.6-2.2-0.8-3.5c0.1-0.2,0.3-0.3,0.5-0.3c0.2,0,0.4,0,0.6,0.1c2.6,1.9,5.8,2.9,9,2.6&#10;&#9;&#9;c0.4,0,0.7,0.2,0.7,0.6c0.5,2.7,1.4,5.3,2.7,7.7c0.6,1.2,1.3,2.4,2.1,3.5c0.2,0.3,0.4,0.5,0.7,0.7c0.6,0.5,1.1,1.1,1.4,1.8&#10;&#9;&#9;c0.2,0.7,0.2,1.5,0,2.3c0,0.3-0.1,0.5-0.1,0.7l-1,23.5c0,0.1-1.4,7.4-10.8,9.9C236.5,156.4,235.4,156.5,234.4,156.5z M224.8,149.1&#10;&#9;&#9;c0.7,1.3,4.8,7.6,12.4,5.6c8.4-2.2,9.8-8.6,9.8-8.7l0.9-23.3c0-0.2,0.1-0.5,0.1-0.9c0.1-0.5,0.1-1.1,0.1-1.6&#10;&#9;&#9;c-0.2-0.5-0.6-0.9-1-1.3c-0.3-0.3-0.6-0.6-0.8-0.9c-0.9-1.2-1.6-2.4-2.3-3.7c-1.2-2.4-2.1-4.9-2.7-7.5c-2.9,0.1-5.8-0.7-8.3-2.2&#10;&#9;&#9;c0.2,0.3,0.4,0.7,0.7,1c0.8,0.8,1.2,1.9,1.2,3c0,0.2-0.1,0.4-0.3,0.5c-0.2,0.1-0.3,0.2-0.5,0.1c-4.5-0.7-7.8-2-9.8-3.8&#10;&#9;&#9;c-1.2,1.2-4.8,7.4-5.4,10.3c-0.9,4-1,8.2-0.3,12.3c1.1,6.3,8,6.8,8.1,6.8c0.2,0,0.4,0.1,0.5,0.3c0.1,0.2,0.2,0.4,0.1,0.6&#10;&#9;&#9;L224.8,149.1z"/>
	<path class="st2_chef-41" d="M225.3,142.8c3.1,0.6,6.4-0.5,8.6-2.8c3.9-3.9,3.5-7.1,3.5-7.1s-4.9,3.8-10.8,2.7L225.3,142.8z"/>
	<path class="st2_chef-41" d="M226.9,143.7c-0.6,0-1.2,0-1.8-0.2c-0.4-0.1-0.6-0.4-0.5-0.8l1.3-7.1c0.1-0.4,0.4-0.6,0.8-0.6&#10;&#9;&#9;c5.5,1,10.2-2.6,10.2-2.6c0.3-0.2,0.7-0.2,1,0.1c0.1,0.1,0.1,0.2,0.1,0.3c0,0.1,0.4,3.6-3.7,7.6&#10;&#9;&#9;C232.4,142.6,229.7,143.7,226.9,143.7z M226.1,142.3c2.7,0.3,5.4-0.7,7.3-2.7c1.5-1.4,2.6-3.2,3.2-5.2c-2.8,1.7-6.1,2.4-9.4,2.1&#10;&#9;&#9;L226.1,142.3z"/>
	<path class="st0_chef-41" d="M233.5,113.5c0,0-4.8,6.9-3.7,8.2s4.2,0.5,4.2,0.5"/>
	<path class="st2_chef-41" d="M232,123.1c-1,0.1-2-0.3-2.8-1c-1.2-1.4,1.3-5.7,3.7-9c0.2-0.3,0.6-0.4,1-0.2c0,0,0,0,0,0&#10;&#9;&#9;c0.3,0.2,0.4,0.7,0.2,1c0,0,0,0,0,0c-2.2,3.2-4,6.7-3.8,7.3c0.6,0.7,2.6,0.4,3.5,0.2c0.4-0.1,0.7,0.1,0.8,0.5c0,0,0,0,0,0&#10;&#9;&#9;c0.1,0.4-0.1,0.8-0.5,0.8c0,0,0,0,0,0C233.5,123,232.7,123,232,123.1z"/>
	
		<ellipse transform="matrix(0.9976 -6.871179e-02 6.871179e-02 0.9976 -7.2028 16.6984)" class="st2_chef-41" cx="239.1" cy="113.1" rx="1.2" ry="1.6"/>
	
		<ellipse transform="matrix(0.2282 -0.9736 0.9736 0.2282 66.1333 309.2787)" class="st2_chef-41" cx="228.1" cy="112.9" rx="1.6" ry="1.2"/>
	<path class="st2_chef-41" d="M231.1,132.6c-1.3,0.1-2.5-0.4-3.4-1.4c-2.1-2.5-1.3-6.6-1.2-6.8c0.1-0.3,0.3-0.6,0.7-0.6l0,0&#10;&#9;&#9;c10.7,0.3,10.8,0.4,11,0.7c0.1,0.2,0.2,0.4,0.1,0.6l0,0c-0.2,1.6-0.9,3.2-1.8,4.6c-1.2,1.7-3.1,2.8-5.2,2.9L231.1,132.6z&#10;&#9;&#9; M227.7,125.2c-0.1,1.1-0.2,3.5,1,5c0.7,0.6,1.6,1,2.5,0.9c1.7-0.1,3.2-1,4.2-2.3c0.7-1,1.2-2.1,1.4-3.3&#10;&#9;&#9;C235.1,125.5,230.8,125.3,227.7,125.2z M237.6,125L237.6,125z M237.6,125L237.6,125z"/>
	<path class="st2_chef-41" d="M235.9,129.2c-2.4,3.2-6.3,3.2-7.8,1.5c0.6-1.4,1.8-2.4,3.3-2.7C233,127.9,234.6,128.3,235.9,129.2z"/>
	<path class="st2_chef-41" d="M231.1,132.6c-1.3,0.1-2.5-0.5-3.4-1.4c-0.2-0.2-0.2-0.5-0.1-0.8c1.1-1.9,2.3-2.9,3.8-3.1&#10;&#9;&#9;c1.8-0.1,3.5,0.3,4.9,1.3c0.2,0.1,0.3,0.3,0.3,0.5c0,0.2,0,0.4-0.1,0.5c-1.2,1.7-3.1,2.8-5.2,2.9H231.1z M229.1,130.6&#10;&#9;&#9;c0.6,0.4,1.4,0.6,2.1,0.6c1.4-0.1,2.7-0.7,3.7-1.7c-1-0.6-2.2-0.8-3.3-0.7C230.5,128.9,229.6,129.6,229.1,130.6L229.1,130.6z"/>
	<path class="st0_chef-41" d="M245.8,119.5c-0.1-2.9,2.8-7,6-5.2c1.1,0.7,1.9,1.9,2.2,3.2c1.6,6.1-3.2,8.2-6.4,9.7"/>
	<path class="st2_chef-41" d="M247.7,127.9c-0.3,0-0.5-0.1-0.7-0.4c-0.2-0.3-0.1-0.7,0.3-0.9c0,0,0,0,0,0c3.3-1.6,7.4-3.5,6-8.9&#10;&#9;&#9;c-0.2-1.1-0.9-2.1-1.8-2.8c-0.8-0.5-1.9-0.5-2.7,0.1c-1.4,1-2.3,2.7-2.3,4.5c0,0.4-0.3,0.7-0.6,0.7c0,0,0,0,0,0&#10;&#9;&#9;c-0.4,0-0.7-0.2-0.7-0.6c0,0,0,0,0-0.1c-0.1-2.3,1-4.4,2.9-5.7c1.2-0.8,2.8-0.9,4.1-0.2c1.3,0.8,2.2,2.1,2.5,3.6&#10;&#9;&#9;c1.7,6.6-3.5,9-6.6,10.5C247.9,127.8,247.8,127.9,247.7,127.9z"/>
	<path class="st0_chef-41" d="M219.1,92.1c0,0-1.7,11-1.6,13.8c4.2-2.5,9.1-3.9,14-4.1c7.7,0,18.7,4.6,21.9,6.3L251.1,91&#10;&#9;&#9;c0,0-5.3-2.9-16.8-1.8S219.1,92.1,219.1,92.1z"/>
	<path class="st2_chef-41" d="M253.4,108.8c-0.1,0-0.2,0-0.3-0.1c-2.9-1.6-14-6.2-21.5-6.2h-0.1c-4.8,0.1-9.4,1.5-13.5,3.9&#10;&#9;&#9;c-0.2,0.1-0.5,0.1-0.7,0c-0.2-0.1-0.4-0.3-0.4-0.6c-0.1-2.8,1.5-13.5,1.6-14c0-0.2,0.2-0.4,0.4-0.5c0.2-0.1,4-1.8,15.4-3&#10;&#9;&#9;s17,1.7,17.2,1.9c0.2,0.1,0.3,0.3,0.4,0.5l2.3,17.3c0,0.3-0.1,0.5-0.3,0.7C253.7,108.8,253.5,108.8,253.4,108.8z M231.4,101.1h0.1&#10;&#9;&#9;c7.1,0,16.8,3.8,21,5.8l-2-15.5c-1.3-0.6-6.5-2.5-16.1-1.6c-9.3,0.9-13.5,2.3-14.6,2.7c-0.3,1.7-1.3,8.8-1.5,12.1&#10;&#9;&#9;C222.3,102.5,226.8,101.3,231.4,101.1L231.4,101.1z"/>
	<path class="st0_chef-41" d="M219,86.1c0,0,1.5,7.6,7.3,7.8s12.6-3.9,12.6-3.9s12.2,5.7,17.4-0.9"/>
	<path class="st2_chef-41" d="M226.6,94.6h-0.3c-6.3-0.2-7.9-8-8-8.3c-0.1-0.4,0.2-0.7,0.6-0.8c0.4-0.1,0.7,0.2,0.8,0.5c0,0,0,0,0,0&#10;&#9;&#9;c0,0.1,1.4,7.1,6.6,7.2c5.6,0.2,12.2-3.8,12.2-3.8c0.2-0.1,0.5-0.1,0.7,0c0.1,0.1,11.8,5.4,16.6-0.7c0.2-0.3,0.7-0.4,1-0.1&#10;&#9;&#9;c0.3,0.2,0.4,0.7,0.1,1l0,0c-5.1,6.5-15.8,2.2-17.9,1.3C237.5,91.5,231.8,94.6,226.6,94.6z"/>
	<path class="st3_chef-41 targetColor" d="M251,139.6l-12.6,1.9l-4.9,5.2l-2.1-5.4l-8.9-2.8l-0.9,8.1l-17.1,10c0,0-9,76.2-5.6,98.5&#10;&#9;&#9;c0,0,60.6,2.2,79.4-8.6c0,0-11.9-56.3-10.2-66.8c1.1-7.5,1.7-15,1.8-22.5l-18-10.4L251,139.6z" style="fill: rgb(247, 204, 81);"/>
	<path class="st0_chef-41" d="M163.1,150.6c0,0,7-9.8,7.6-11.9s0.3-10.4-0.3-10.7s-3.4,0.9-4,2.2c-0.5,1.7-0.7,3.4-0.8,5.1&#10;&#9;&#9;c-1.5-0.1-2.9,0.3-4.1,1.2c0,0-1.8-4.9-1.9-5.4s3.2-4.4,3.2-4.4s2.3,1.7,4.6,1s2.6-1.3,1.6-2.9s-9.3-3.1-9.3-3.1l-5.5,5.4&#10;&#9;&#9;c0,0-0.8-7.9,0-9.6s2.4-6.1,1.6-7.5s-2.7-0.8-3.7,0.6s-3.4,6.2-3.5,7.7s0,8.7,0,8.7s-2.9-6.2-2.6-7.4s3.3-7.1,2.1-8.4&#10;&#9;&#9;s-6.7,5.7-7.2,8.4s2.9,10.4,2.9,10.4s-4.7-4-4.7-4.8s0.3-7.2-0.4-8.1s-2.7-0.7-3,2.5s-0.2,7.9,0.7,9.8s8.8,15.2,9.1,16.7&#10;&#9;&#9;s-0.7,9-0.7,9l16.5,0.7L163.1,150.6z"/>
	<path class="st2_chef-41" d="M161.4,156.4L161.4,156.4l-16.5-0.7c-0.2,0-0.4-0.1-0.5-0.2c-0.1-0.2-0.2-0.4-0.1-0.6c0.4-2.9,1-7.8,0.7-8.8&#10;&#9;&#9;s-3.7-7-6-11c-1.5-2.7-2.7-4.8-3.1-5.5c-1.1-2.2-1.1-7.3-0.8-10.2c0.2-2.5,1.4-3.2,2.1-3.5c0.8-0.3,1.6,0,2.2,0.6&#10;&#9;&#9;c0.5,0.6,0.8,2.2,0.6,8c0,0.3,0,0.5,0,0.6c0.7,0.8,1.4,1.5,2.2,2.2c-1-2.6-2.1-6.1-1.8-7.9c0.5-2.5,4.8-8.4,7-9.1&#10;&#9;&#9;c0.5-0.2,1,0,1.4,0.3c1.1,1.2,0.1,4.1-1.3,7.5c-0.2,0.5-0.4,1.1-0.6,1.6c0.2,1.3,0.6,2.6,1.2,3.8c0-2.1,0-4.5,0.1-5.3&#10;&#9;&#9;c0.1-1.7,2.7-6.6,3.6-8c0.6-1,1.7-1.6,2.9-1.7l0,0c0.8,0,1.5,0.4,1.9,1.1c1.2,1.9-1.1,7.2-1.6,8.2s-0.4,4.8-0.1,7.8l4.4-4.4&#10;&#9;&#9;c0.2-0.2,0.4-0.2,0.6-0.2c2,0.4,8.6,1.8,9.8,3.4c0.5,0.6,0.8,1.4,0.6,2.2c-0.1,0.3-0.3,0.5-0.5,0.7c0.3-0.1,0.7-0.1,1,0.1&#10;&#9;&#9;c1.5,0.6,1,10.3,0.7,11.5c-0.6,2.1-6.7,10.7-7.6,12l-1.7,5C161.9,156.2,161.7,156.4,161.4,156.4z M145.6,154.2l15.2,0.7l1.6-4.6&#10;&#9;&#9;c0-0.1,0.1-0.1,0.1-0.2c2.8-3.9,7.1-10.2,7.5-11.7c0.5-1.8,0.3-8.4-0.1-9.8c-0.7,0.1-2.5,0.9-2.9,1.8c-0.4,1.6-0.7,3.2-0.7,4.9&#10;&#9;&#9;c0,0.2-0.1,0.4-0.2,0.5c-0.1,0.1-0.3,0.2-0.5,0.2c-1.3-0.1-2.6,0.3-3.7,1c-0.3,0.2-0.7,0.2-1-0.1c0-0.1-0.1-0.1-0.1-0.2&#10;&#9;&#9;c-0.4-1.2-1.8-5-1.9-5.5c-0.1-0.3-0.2-0.8,3.4-5c0.2-0.3,0.7-0.3,0.9-0.1c0,0,2.1,1.5,4,0.9c1.4-0.4,1.6-0.7,1.6-0.8s0-0.3-0.4-1&#10;&#9;&#9;s-4.8-2-8.5-2.8l-5.2,5.2c-0.3,0.3-0.7,0.3-1,0c-0.1-0.1-0.2-0.3-0.2-0.4c-0.1-1.4-0.8-8.2,0.1-10c1-2,2.2-5.9,1.6-6.8&#10;&#9;&#9;c-0.1-0.3-0.4-0.5-0.8-0.5c-0.7,0.1-1.3,0.5-1.7,1.1c-0.9,1.4-3.3,6.1-3.4,7.3c-0.1,1.4,0,8.5,0,8.6c0,0.3-0.2,0.6-0.6,0.7&#10;&#9;&#9;c-0.3,0.1-0.7-0.1-0.8-0.4c-0.9-1.9-2.9-6.6-2.6-7.9c0.2-0.6,0.4-1.2,0.7-1.8c0.5-1.3,2.2-5.3,1.6-6c-1,0-5.5,5.7-6,8.1&#10;&#9;&#9;c-0.4,2,1.9,7.9,2.9,10c0.1,0.3,0,0.7-0.2,0.9c-0.3,0.2-0.6,0.2-0.9,0c-4.9-4.2-4.9-5-4.9-5.3c0-0.1,0-0.3,0-0.6&#10;&#9;&#9;c0.2-5.4-0.1-6.7-0.3-7c-0.2-0.2-0.4-0.2-0.7-0.2c-0.6,0.2-1,1-1.1,2.3c-0.3,3.3-0.2,7.7,0.6,9.4c0.3,0.7,1.6,2.9,3,5.5&#10;&#9;&#9;c3.4,6.1,5.9,10.4,6.1,11.4C146.6,147,146,152.1,145.6,154.2z M160.3,131c0.2,0.6,0.8,2.5,1.5,4.4c1-0.5,2.1-0.7,3.1-0.8&#10;&#9;&#9;c0.1-1.6,0.3-3.2,0.8-4.7c0.3-0.6,0.8-1.1,1.4-1.5c-1.5,0.2-3-0.1-4.2-0.8C162,128.6,161.1,129.8,160.3,131z"/>
	<path class="st0_chef-41" d="M151.2,134.8c0,0,4.4,3.7,3.9,9.4c1.3-3.1,3.5-5.8,6.4-7.6"/>
	<path class="st2_chef-41" d="M155.1,144.8h-0.2c-0.3-0.1-0.6-0.4-0.5-0.8c0.5-5.2-3.6-8.7-3.6-8.7c-0.3-0.3-0.3-0.7-0.1-1&#10;&#9;&#9;c0.2-0.3,0.7-0.3,1-0.1c0,0,0,0,0,0c2.1,1.9,3.5,4.4,4,7.2c1.4-2.2,3.2-4.1,5.4-5.6c0.3-0.2,0.8-0.1,1,0.2c0.2,0.3,0.1,0.8-0.2,1&#10;&#9;&#9;c0,0,0,0,0,0c-2.7,1.8-4.8,4.3-6.1,7.3C155.6,144.6,155.4,144.8,155.1,144.8z"/>
	<path class="st0_chef-41" d="M142.6,130.7c0,0,5.8-3.3,9.3-3.5"/>
	<path class="st2_chef-41" d="M142.6,131.4c-0.2,0-0.5-0.2-0.6-0.4c-0.2-0.3-0.1-0.8,0.2-1c0,0,0,0,0.1,0c0.2-0.1,6-3.4,9.7-3.6&#10;&#9;&#9;c0.4,0,0.7,0.3,0.7,0.6c0,0,0,0,0,0c0,0.4-0.3,0.7-0.7,0.7c0,0,0,0,0,0c-3.4,0.2-9,3.4-9,3.4C142.9,131.3,142.7,131.4,142.6,131.4z&#10;&#9;&#9;"/>
	<path class="st0_chef-41" d="M312.2,142.3c0.5-1.9,0.6-3.9,0.4-5.9c-0.4-2.6,0.2-8.2-0.6-10.3s-8.2-7.8-7.7-9s2.9-2,4.5-1.3&#10;&#9;&#9;s7.9,7.1,7.9,7.1l15.9-9l12.4-0.8c0,0-10.8,14.3-12,16.7s-3.1,7.8-5.2,9.2c-1.1,0.7-2.2,1.3-3.4,1.8l-2,4.4L312.2,142.3z"/>
	<path class="st2_chef-41" d="M322.4,145.9h-0.2L312,143c-0.4-0.1-0.6-0.5-0.5-0.9c0.5-1.8,0.6-3.7,0.4-5.6c-0.2-1.6-0.2-3.1-0.2-4.7&#10;&#9;&#9;c0.1-1.8,0-3.7-0.4-5.5c-0.3-0.8-2.2-2.7-3.8-4.2c-3.2-3.1-4.3-4.3-3.9-5.3c0.7-1.5,3.5-2.5,5.4-1.6c1.5,0.7,6.2,5.4,7.7,6.9&#10;&#9;&#9;l15.4-8.8c0.1-0.1,0.2-0.1,0.3-0.1l12.4-0.8c0.4,0,0.7,0.3,0.7,0.7c0,0.2,0,0.3-0.1,0.5c-3.7,4.9-11,14.7-11.9,16.5&#10;&#9;&#9;c-0.3,0.5-0.6,1.2-0.9,2c-1.2,2.8-2.8,6.3-4.5,7.5c-1,0.7-2.1,1.3-3.3,1.8l-1.9,4.1C322.9,145.8,322.7,146,322.4,145.9z M313,141.8&#10;&#9;&#9;l9,2.6l1.8-3.8c0.1-0.2,0.2-0.3,0.4-0.4c1.1-0.5,2.2-1,3.2-1.7c1.4-0.9,3-4.5,4-6.8c0.4-0.8,0.7-1.5,0.9-2.1c1-2,8.5-12,11.1-15.6&#10;&#9;&#9;l-10.7,0.7l-15.8,9c-0.3,0.2-0.6,0.1-0.9-0.1c-2.4-2.4-6.5-6.5-7.6-7c-1.2-0.4-2.6-0.1-3.5,0.8c1,1.4,2.2,2.6,3.5,3.8&#10;&#9;&#9;c2.3,2.2,3.8,3.7,4.2,4.8c0.4,1.9,0.6,3.9,0.4,5.9c0,1.5,0,3,0.2,4.4C313.5,138.1,313.4,140,313,141.8z"/>
	<path class="st0_chef-41" d="M323.2,122.2c0,0,6.1,0.7,10.1,3.2"/>
	<path class="st2_chef-41" d="M333.3,126.1c-0.1,0-0.2,0-0.3-0.1c-3.9-2.4-9.8-3.1-9.9-3.1c-0.4,0-0.7-0.4-0.6-0.8c0-0.4,0.4-0.7,0.8-0.6&#10;&#9;&#9;c0,0,0,0,0,0c0.2,0,6.3,0.7,10.4,3.3c0.3,0.2,0.4,0.7,0.2,1c0,0,0,0,0,0C333.8,126,333.6,126.1,333.3,126.1z"/>
	<line class="st4_chef-41" x1="326.1" y1="122.7" x2="336.6" y2="114.1"/>
	<path class="st2_chef-41" d="M326.1,123.4c-0.2,0-0.4-0.1-0.5-0.3c-0.3-0.3-0.2-0.7,0.1-1c0,0,0,0,0,0l10.5-8.6c0.3-0.2,0.7-0.2,1,0.1&#10;&#9;&#9;c0.2,0.3,0.2,0.7-0.1,1l-10.5,8.5C326.4,123.3,326.3,123.4,326.1,123.4z"/>
	<line class="st4_chef-41" x1="330.5" y1="124" x2="340.7" y2="113.9"/>
	<path class="st2_chef-41" d="M330.5,124.7c-0.2,0-0.4-0.1-0.5-0.2c-0.3-0.3-0.3-0.7,0-1c0,0,0,0,0,0l10.2-10.1c0.3-0.3,0.7-0.3,1,0&#10;&#9;&#9;c0,0,0,0,0,0c0.3,0.3,0.3,0.7,0,1L331,124.5C330.9,124.6,330.7,124.7,330.5,124.7z"/>
	<path class="st0_chef-41" d="M316.7,123.1c0,0,5.4,6.3,4.3,11.3"/>
	<path class="st2_chef-41" d="M321,135h-0.1c-0.4-0.1-0.6-0.5-0.5-0.8c1-4.6-4.1-10.6-4.2-10.7c-0.3-0.3-0.2-0.7,0.1-1&#10;&#9;&#9;c0.3-0.3,0.7-0.2,1,0.1c0,0,0,0,0,0c0.2,0.3,5.7,6.6,4.5,11.9C321.6,134.8,321.3,135,321,135z"/>
	<path class="st3_chef-41 targetColor" d="M204.4,156.6l-39.9,23.1l0.1-27.5l-22.5,0.7c0,0-10.6,42.7-4.2,53.4s52.6-4,70-18.9L204.4,156.6z" style="fill: rgb(247, 204, 81);"/>
	<path class="st3_chef-41 targetColor" d="M269.9,157.2l25.2,11.1l15.5-30.6l18.1,4.4c0,0-10.6,53.4-23.5,52.7s-59.7-15.2-59.7-15.2L269.9,157.2z" style="fill: rgb(247, 204, 81);"/>
	<path class="st2_chef-41" d="M207.8,250.6c-0.4,0-0.7-0.3-0.7-0.7c0,0,0,0,0,0c-0.2-22,4-82.1,4.1-82.7c0-0.2,0.1-0.4,0.3-0.6l21.2-12.3&#10;&#9;&#9;l0.1-7.7c0-0.4,0.3-0.7,0.7-0.7c0.4,0,0.7,0.3,0.7,0.7c0,0,0,0,0,0l-0.1,8.1c0,0.2-0.1,0.5-0.4,0.6l-21.2,12.3&#10;&#9;&#9;c-0.4,5.1-4.2,61.1-4,82.2C208.5,250.3,208.2,250.6,207.8,250.6C207.8,250.6,207.8,250.6,207.8,250.6L207.8,250.6z"/>
	<circle class="st2_chef-41" cx="221.9" cy="171.1" r="2.6"/>
	<circle class="st2_chef-41" cx="242.3" cy="171.2" r="2.6"/>
	<circle class="st2_chef-41" cx="321.1" cy="147.1" r="2.6"/>
	<circle class="st2_chef-41" cx="219.6" cy="204.4" r="2.6"/>
	<circle class="st2_chef-41" cx="158.8" cy="158" r="2.6"/>
	<circle class="st2_chef-41" cx="236.7" cy="204.5" r="2.6"/>
	<circle class="st2_chef-41" cx="216.9" cy="236.1" r="2.6"/>
	<circle class="st2_chef-41" cx="236.9" cy="236.1" r="2.6"/>
	<path class="st2_chef-41" d="M198.2,235.1c-0.4,0-0.7-0.3-0.7-0.7c-0.6-20.2,5.3-65.6,5.4-66c0.1-0.4,0.4-0.7,0.8-0.6&#10;&#9;&#9;c0.4,0.1,0.7,0.4,0.6,0.8l0,0c-0.1,0.4-6,45.7-5.4,65.8C198.9,234.8,198.6,235.1,198.2,235.1C198.2,235.1,198.2,235.1,198.2,235.1&#10;&#9;&#9;L198.2,235.1z"/>
	<path class="st2_chef-41" d="M305.1,195.4c-8.4,0-49.9-12.2-51.7-12.7c-0.4-0.1-0.6-0.5-0.4-0.9c0.1-0.3,0.5-0.5,0.8-0.4&#10;&#9;&#9;c0.4,0.1,43,12.6,51.2,12.6h0c0.4,0,0.7,0.3,0.7,0.7S305.6,195.4,305.1,195.4C305.2,195.4,305.2,195.4,305.1,195.4L305.1,195.4z"/>
	<path class="st2_chef-41" d="M141.8,164.6c-0.4,0-0.7-0.3-0.7-0.7c0-0.4,0.3-0.7,0.7-0.7l20.5-0.8c0.4,0,0.7,0.3,0.7,0.7&#10;&#9;&#9;c0,0.4-0.3,0.7-0.7,0.7l0,0L141.8,164.6L141.8,164.6z"/>
	<path class="st2_chef-41" d="M289.9,179.7c-0.4,0-0.7-0.3-0.7-0.7c0-0.1,0-0.2,0.1-0.3l17.8-35.6c0.2-0.3,0.6-0.5,0.9-0.3s0.5,0.6,0.3,0.9&#10;&#9;&#9;l0,0l-17.8,35.6C290.4,179.6,290.2,179.7,289.9,179.7z"/>
	<path class="st2_chef-41" d="M323.6,155.1h-0.2l-15.9-4.3c-0.4-0.1-0.6-0.4-0.5-0.8c0.1-0.4,0.4-0.6,0.8-0.5c0,0,0.1,0,0.1,0l15.9,4.3&#10;&#9;&#9;c0.4,0.1,0.6,0.5,0.5,0.9C324.2,154.9,323.9,155.1,323.6,155.1L323.6,155.1z"/>
</g>
<g id="Plate_chef-41">
	<path class="st0_chef-41" d="M284.6,107.3c0,0,7.3,2.7,7.7,8.7l67.8,0.3c0.4-6,7.8-8.6,7.8-8.6L284.6,107.3z"/>
	<path class="st2_chef-41" d="M360,117L360,117l-67.8-0.3c-0.4,0-0.7-0.3-0.7-0.7c-0.3-5.4-7.1-8-7.2-8.1c-0.4-0.1-0.5-0.6-0.4-0.9&#10;&#9;&#9;c0.1-0.3,0.4-0.4,0.6-0.4l0,0l83.2,0.4c0.4,0,0.7,0.3,0.7,0.7c0,0.3-0.2,0.6-0.5,0.7c-0.1,0-6.9,2.6-7.3,8&#10;&#9;&#9;C360.7,116.7,360.4,117,360,117z M292.9,115.3l66.5,0.3c0.5-3.6,3.3-5.9,5.4-7.2l-77.3-0.4C289.7,109.3,292.4,111.7,292.9,115.3&#10;&#9;&#9;L292.9,115.3z"/>
	<circle class="st0_chef-41" cx="327" cy="79.1" r="3.7"/>
	<path class="st2_chef-41" d="M327,83.5L327,83.5c-2.4,0-4.4-2-4.4-4.4c0-2.4,2-4.4,4.4-4.4l0,0l0,0c2.4,0,4.4,2,4.4,4.4c0,0,0,0,0,0l0,0&#10;&#9;&#9;C331.4,81.5,329.4,83.5,327,83.5L327,83.5z M327,76c-1.7,0-3,1.3-3,3s1.3,3,3,3c0.8,0,1.6-0.3,2.1-0.9c1.2-1.2,1.2-3.1,0-4.2&#10;&#9;&#9;c0,0,0,0,0,0C328.6,76.3,327.8,76,327,76L327,76z M330.7,79L330.7,79z"/>
	<path class="st0_chef-41" d="M363.3,107.8c-3.1-16-18.1-28.2-36.1-28.3s-33.1,11.9-36.4,28L363.3,107.8z"/>
	<path class="st2_chef-41" d="M363.3,108.5L363.3,108.5l-72.5-0.4c-0.2,0-0.4-0.1-0.5-0.3c-0.1-0.2-0.2-0.4-0.1-0.6&#10;&#9;&#9;c3.4-16.5,18.9-28.5,36.9-28.5h0.2c18.1,0.1,33.5,12.2,36.8,28.9c0,0.2,0,0.4-0.1,0.6C363.7,108.4,363.5,108.5,363.3,108.5z&#10;&#9;&#9; M291.7,106.8l70.8,0.4c-3.4-15.6-18.1-26.8-35.2-26.9H327C310,80.2,295.3,91.3,291.7,106.8z"/>
	
		<rect x="324.5" y="65.6" transform="matrix(5.061433e-03 -1 1 5.061433e-03 217.3488 432.871)" class="st0_chef-41" width="3.4" height="83.2"/>
	<path class="st2_chef-41" d="M367.8,109.8L367.8,109.8l-83.2-0.4c-0.2,0-0.4-0.1-0.5-0.2c-0.1-0.1-0.2-0.3-0.2-0.5v-3.4&#10;&#9;&#9;c0-0.4,0.3-0.7,0.7-0.7l0,0l83.2,0.4c0.4,0,0.7,0.3,0.7,0.7c0,0,0,0,0,0v3.4C368.5,109.5,368.2,109.8,367.8,109.8&#10;&#9;&#9;C367.8,109.8,367.8,109.8,367.8,109.8z M285.3,108l81.8,0.4v-2l-81.8-0.4L285.3,108z"/>
</g>
</svg>