<svg version="1.1" id="Layer_1" xmlns="http://www.w3.org/2000/svg" xmlns:xlink="http://www.w3.org/1999/xlink" x="0px" y="0px" viewBox="0 0 500 500" style="width: 188px;" xml:space="preserve" data-imageid="fast-food-59" imageName="Fast Food" class="illustrations_image">
<style type="text/css">
	.st0_fast-food-59{fill:#68E1FD;}
	.st1_fast-food-59{fill:#093F68;}
	.st2_fast-food-59{fill:#AD7972;}
	.st3_fast-food-59{fill:#F56132;}
	.st4_fast-food-59{fill:#FFBC0E;}
	.st5_fast-food-59{fill:#70CC40;}
	.st6_fast-food-59{fill:#FFFFFF;}
</style>
<g id="food_fast-food-59">
	<path class="st0_fast-food-59 targetColor" d="M59.1,350H258c6.8,0,12.3,5.5,12.3,12.3v7.1c0,11.2-9.1,20.3-20.3,20.2H67c-11.2,0-20.3-9.1-20.3-20.3l0,0&#10;&#9;&#9;v-7.1C46.7,355.5,52.3,350,59.1,350z" style="fill: rgb(247, 204, 81);"/>
	<path class="st1_fast-food-59" d="M244.8,391.5H72.3c-15.1,0-27.4-12.3-27.4-27.4v-3.6c0-6.9,5.6-12.4,12.5-12.5h202.4c6.9,0,12.4,5.6,12.4,12.5&#10;&#9;&#9;v3.6C272.2,379.2,259.9,391.5,244.8,391.5z M57.3,351.8c-4.8,0-8.7,3.9-8.7,8.7v3.6c0,13.1,10.6,23.7,23.7,23.7h172.5&#10;&#9;&#9;c13.1,0,23.7-10.6,23.7-23.7v-3.6c0-4.8-3.9-8.7-8.7-8.7H57.3z"/>
	<path class="st2_fast-food-59" d="M51.8,285.5h216.8c4.6,0,8.3,3.7,8.3,8.3v15.6c0,4.6-3.7,8.3-8.3,8.3H51.8c-4.6,0-8.3-3.7-8.3-8.3v-15.6&#10;&#9;&#9;C43.5,289.2,47.3,285.5,51.8,285.5z"/>
	<path class="st1_fast-food-59" d="M261.3,319.6H59.2c-9.7,0-17.5-7.8-17.5-17.5v-1c0-9.7,7.8-17.5,17.5-17.5h202.1c9.7,0,17.5,7.8,17.5,17.5v1&#10;&#9;&#9;C278.8,311.8,270.9,319.6,261.3,319.6z M59.2,287.4c-7.6,0-13.7,6.1-13.7,13.7v1c0,7.6,6.2,13.7,13.7,13.7h202.1&#10;&#9;&#9;c7.6,0,13.7-6.2,13.7-13.7v-1c0-7.6-6.2-13.7-13.7-13.7L59.2,287.4z"/>
	<path class="st2_fast-food-59" d="M276.9,333.4v1c0,8.6-7,15.6-15.6,15.6c0,0,0,0,0,0H59.2c-8.6,0-15.6-7-15.6-15.6v-1c0-8.6,7-15.6,15.6-15.6&#10;&#9;&#9;l0,0h202.1C269.9,317.8,276.9,324.7,276.9,333.4z"/>
	<path class="st1_fast-food-59" d="M261.3,351.8H59.2c-9.7,0-17.5-7.8-17.5-17.5v-1c0-9.7,7.8-17.5,17.5-17.5h202.1c9.7,0,17.5,7.8,17.5,17.5v1&#10;&#9;&#9;C278.8,344,270.9,351.8,261.3,351.8z M59.2,319.6c-7.6,0-13.7,6.2-13.7,13.7v1c0,7.6,6.1,13.7,13.7,13.7h202.1&#10;&#9;&#9;c7.6,0,13.7-6.2,13.7-13.7v-1c0-7.6-6.1-13.7-13.7-13.7L59.2,319.6z"/>
	<path class="st3_fast-food-59" d="M257.4,317.7c0.1,1.7,0,3.4-0.4,5.1c-3.2,14.1-22.3,21.7-42.6,17c-14.6-3.4-25.9-12.2-29.8-22.1L257.4,317.7z"/>
	<path class="st1_fast-food-59" d="M226.1,343.1c-4.1,0-8.2-0.5-12.2-1.4c-14.9-3.4-26.8-12.3-31.2-23.2c-0.4-1,0.1-2,1-2.4&#10;&#9;&#9;c0.2-0.1,0.5-0.1,0.7-0.1h72.8c1,0,1.8,0.8,1.9,1.8c0.1,1.9,0,3.8-0.5,5.6C256,335.4,242.4,343.1,226.1,343.1z M187.5,319.6&#10;&#9;&#9;c4.6,8.5,15,15.6,27.3,18.4c19.2,4.4,37.3-2.6,40.3-15.6c0.2-0.9,0.3-1.8,0.4-2.8L187.5,319.6z"/>
	<polygon class="st4_fast-food-59" points="68.1,317.7 107.6,366.4 178.2,317.7 &#9;"/>
	<path class="st1_fast-food-59" d="M107.6,368.3c-0.6,0-1.1-0.3-1.5-0.7l-39.4-48.7c-0.7-0.8-0.5-2,0.3-2.6c0.3-0.3,0.7-0.4,1.2-0.4h110.1&#10;&#9;&#9;c1,0,1.9,0.8,1.9,1.9c0,0.6-0.3,1.2-0.8,1.6L108.6,368C108.3,368.2,107.9,368.3,107.6,368.3z M72.1,319.6l35.8,44.3l64.3-44.3H72.1&#10;&#9;&#9;z"/>
	<path class="st5_fast-food-59" d="M94.4,301.9c9.2,18.1,31.3,25.2,49.4,16c6.7-3.4,12.2-8.8,15.7-15.4c5.2,8,15.8,10.3,23.8,5.1&#10;&#9;&#9;c3-1.9,5.3-4.7,6.6-8c8.6,4.5,18.1,7.8,27.8,7s19.4-6.4,22.7-15.4c3.3,5.5,11.7,6.7,17.2,3.2s8.2-10.2,8.1-16.6&#10;&#9;&#9;c-0.2-17.1-16.6-29.8-33-35.5c-22.7-8-47.5-7.9-71.5-5.9c-29.1,2.4-59.2,7.9-84.4,23.1c-10.8,6.5-27.5,16.1-20.1,30.4&#10;&#9;&#9;C63.4,303.1,81.3,309.5,94.4,301.9z"/>
	<path class="st1_fast-food-59" d="M127,323.8h-0.3c-13.6-0.3-26.2-7.6-33.1-19.4c-6.3,2.9-13.4,3.4-20,1.4c-8-2.3-14.7-7.7-18.7-15&#10;&#9;&#9;c-8-15.5,9.6-26.1,20.1-32.4l0.7-0.4c28.2-17,62.2-21.5,85.3-23.4c20.8-1.7,47.8-2.6,72.3,6c15.7,5.5,34,18.6,34.2,37.2&#10;&#9;&#9;c0.1,7.7-3.4,14.7-9,18.2c-3.5,2.1-7.8,2.8-11.8,1.8c-2.2-0.5-4.2-1.6-5.9-3.1c-4.2,7.5-13,12.9-23,13.7c-8.2,0.7-17.1-1.4-27-6.3&#10;&#9;&#9;c-5,9.3-16.5,12.8-25.8,7.9c-2-1.1-3.8-2.5-5.3-4.1C152.5,317,140.2,323.7,127,323.8z M94.4,300c0.2,0,0.4,0,0.5,0.1&#10;&#9;&#9;c0.5,0.2,0.9,0.5,1.1,1c6,11.5,17.8,18.7,30.7,19h0.2c12.8-0.1,24.6-7.2,30.8-18.4c0.3-0.6,0.9-1,1.6-1c0.7,0,1.3,0.3,1.7,0.9&#10;&#9;&#9;c4.6,7.1,14.1,9.1,21.2,4.5c2.7-1.7,4.7-4.2,5.9-7.1c0.4-1,1.5-1.5,2.4-1.1c0.1,0,0.1,0,0.2,0.1c10,5.2,18.8,7.4,26.8,6.8&#10;&#9;&#9;c9.8-0.8,18.2-6.5,21.1-14.2c0.4-1,1.4-1.5,2.4-1.1c0.4,0.1,0.7,0.4,1,0.8c1.3,2,3.3,3.4,5.7,3.9c3,0.7,6.2,0.3,8.9-1.3&#10;&#9;&#9;c4.5-2.8,7.3-8.5,7.2-15c-0.2-16.7-17.2-28.6-31.7-33.7c-23.9-8.4-50.3-7.5-70.7-5.8c-22.7,1.9-56.1,6.3-83.6,22.8l-0.7,0.4&#10;&#9;&#9;c-13.2,7.9-24.6,16-18.7,27.5c3.5,6.4,9.4,11.1,16.4,13.1c6.3,2,13,1.3,18.8-1.9C93.7,300.1,94,300.1,94.4,300z"/>
	<path class="st0_fast-food-59 targetColor" d="M56.5,285.5c-7.1,0-12.9-5.8-12.9-13c0-1,0.1-2,0.4-3c10.1-41.1,58.3-72.3,116.3-72.3s106.2,31.1,116.3,72.3&#10;&#9;&#9;c1.7,6.9-2.6,13.9-9.5,15.6c-1,0.2-2,0.4-3,0.4H56.5z" style="fill: rgb(247, 204, 81);"/>
	<path class="st1_fast-food-59" d="M264,287.4H56.5c-8.2,0-14.8-6.6-14.8-14.8c0-1.2,0.2-2.4,0.4-3.6c10.5-42.7,60.2-73.7,118.1-73.7&#10;&#9;&#9;s107.6,31,118.1,73.7c2,7.9-2.8,16-10.8,18C266.4,287.3,265.2,287.4,264,287.4z M160.2,199.1c-56.2,0-104.4,29.8-114.5,70.8&#10;&#9;&#9;c-0.8,3.3-0.1,6.8,2,9.5c2.1,2.7,5.3,4.2,8.7,4.2H264c6.1,0,11-4.9,11-11c0-0.9-0.1-1.9-0.3-2.7&#10;&#9;&#9;C264.6,228.9,216.5,199.1,160.2,199.1L160.2,199.1z"/>
	<path class="st1_fast-food-59" d="M123.2,237.2c-1,0-1.9-0.9-1.9-1.9c0-0.5,0.2-0.9,0.5-1.2l13-14.5c0.7-0.8,1.9-0.8,2.7-0.1s0.8,1.9,0.1,2.7&#10;&#9;&#9;l-13,14.5C124.2,237,123.7,237.2,123.2,237.2z"/>
	<path class="st1_fast-food-59" d="M200.5,243.3c-0.4,0-0.9-0.2-1.2-0.4l-16-13.3c-0.8-0.7-0.8-1.9-0.1-2.7c0.7-0.7,1.7-0.8,2.5-0.2l16,13.3&#10;&#9;&#9;c0.8,0.7,0.9,1.8,0.3,2.6C201.6,243,201.1,243.3,200.5,243.3L200.5,243.3z"/>
	<path class="st1_fast-food-59" d="M142.6,262.5c-1,0-1.9-0.8-1.9-1.9c0-0.8,0.5-1.5,1.2-1.8l17.7-6.4c1-0.3,2.1,0.3,2.3,1.3&#10;&#9;&#9;c0.3,0.9-0.2,1.9-1.1,2.3l-17.7,6.3C143,262.5,142.8,262.5,142.6,262.5z"/>
	<path class="st1_fast-food-59" d="M108.6,271.6c-0.7,0-1.3-0.4-1.7-1l-6.8-12.2c-0.5-0.9-0.2-2.1,0.7-2.6c0.9-0.5,2-0.2,2.5,0.7c0,0,0,0,0,0&#10;&#9;&#9;l6.8,12.2c0.5,0.9,0.2,2.1-0.7,2.6c0,0,0,0,0,0C109.2,271.5,108.9,271.6,108.6,271.6z"/>
	<path class="st1_fast-food-59" d="M225.5,259.4c-1,0-1.9-0.9-1.9-1.9c0-0.6,0.3-1.2,0.8-1.5l12.7-9.1c0.9-0.5,2.1-0.3,2.6,0.6&#10;&#9;&#9;c0.5,0.8,0.3,1.8-0.4,2.4l-12.7,9C226.2,259.2,225.9,259.4,225.5,259.4z"/>
	<path class="st1_fast-food-59" d="M81.4,240.3c-1,0-1.9-0.8-1.9-1.9c0-0.7,0.4-1.4,1.1-1.7l14-6.3c0.9-0.4,2.1,0,2.5,0.9c0.4,0.9,0,2.1-0.9,2.5&#10;&#9;&#9;l0,0l-14,6.3C81.9,240.3,81.7,240.3,81.4,240.3z"/>
	<path class="st1_fast-food-59" d="M204.6,268.9h-14.5c-1,0-1.9-0.8-1.9-1.9s0.8-1.9,1.9-1.9l0,0h14.5c1,0,1.9,0.8,1.9,1.9&#10;&#9;&#9;S205.7,268.9,204.6,268.9z"/>
	<path class="st1_fast-food-59" d="M217.8,226.5c-0.3,0-0.7-0.1-1-0.2l-13.1-7.7c-0.9-0.5-1.3-1.6-0.8-2.5c0.5-0.9,1.6-1.3,2.5-0.8&#10;&#9;&#9;c0.1,0,0.1,0.1,0.1,0.1l13.1,7.7c0.9,0.5,1.2,1.7,0.7,2.6C219,226.2,218.4,226.5,217.8,226.5L217.8,226.5z"/>
	<path class="st1_fast-food-59" d="M160.2,224c-1,0-1.9-0.8-1.9-1.9c0-0.8,0.5-1.5,1.3-1.8l11.3-3.9c1-0.3,2.1,0.2,2.4,1.2c0.3,1-0.2,2.1-1.2,2.4&#10;&#9;&#9;l-11.3,3.9C160.6,224,160.4,224,160.2,224z"/>
	<path class="st1_fast-food-59" d="M68.1,265.5c-1,0-1.9-0.9-1.9-1.9c0-0.7,0.4-1.4,1.1-1.7l8.6-4c0.9-0.4,2.1,0,2.5,0.9c0.4,0.9,0,2.1-0.9,2.5&#10;&#9;&#9;l0,0l-8.6,4C68.7,265.4,68.4,265.5,68.1,265.5z"/>
	<path class="st1_fast-food-59" d="M245.2,268.9c-1,0-1.9-0.8-1.9-1.9c0-0.9,0.6-1.7,1.5-1.8l16.3-3.4c1-0.2,2,0.4,2.2,1.4c0.2,1-0.4,2-1.4,2.2&#10;&#9;&#9;c0,0,0,0,0,0l-16.3,3.4C245.4,268.9,245.3,268.9,245.2,268.9z"/>
	<path class="st1_fast-food-59" d="M160.2,206.7c-1,0-1.9-0.9-1.9-1.9v-62c0-1,0.8-1.9,1.9-1.9c1,0,1.9,0.8,1.9,1.9v62&#10;&#9;&#9;C162.1,205.9,161.3,206.7,160.2,206.7z"/>
	<polygon class="st0_fast-food-59 targetColor" points="160.2,172.3 160.2,150.3 124.9,150.3 &#9;" style="fill: rgb(247, 204, 81);"/>
	<path class="st1_fast-food-59" d="M160.2,174.2c-0.4,0-0.7-0.1-1-0.3l-35.3-22c-0.9-0.5-1.2-1.7-0.6-2.6c0.3-0.6,1-0.9,1.6-0.9h35.3&#10;&#9;&#9;c1,0,1.9,0.8,1.9,1.9v22c0,0.7-0.4,1.3-1,1.6C160.8,174.1,160.5,174.2,160.2,174.2z M131.5,152.2l26.9,16.8v-16.8L131.5,152.2z"/>
</g>
<g id="drink_fast-food-59">
	<path class="st1_fast-food-59" d="M325.7,177.7c-0.7,0-1.5-0.2-2.1-0.6c-1.5-1-2.7-1.8-18-59.5l-35.9,16.6c-1.9,0.9-4.1,0.1-5-1.8&#10;&#9;&#9;c-0.9-1.9-0.1-4.1,1.8-5l0,0l40-18.5c1.9-0.9,4.1,0,5,1.9c0.1,0.2,0.2,0.4,0.2,0.6c5.6,21.3,15.1,56.2,17,60.5&#10;&#9;&#9;c1.2,1.7,0.9,4-0.8,5.3C327.3,177.5,326.5,177.7,325.7,177.7L325.7,177.7z"/>
	<path class="st6_fast-food-59" d="M279.2,166.3h172.4c2.8,0,5,2.2,5,5v24.8l0,0H274.2l0,0v-24.8C274.2,168.5,276.5,166.3,279.2,166.3z"/>
	<path class="st1_fast-food-59" d="M456.6,198H274.2c-1,0-1.9-0.8-1.9-1.9c0,0,0,0,0,0v-20.4c0-6.2,5-11.3,11.3-11.3h163.6&#10;&#9;&#9;c6.2,0,11.3,5,11.3,11.3v20.4C458.5,197.2,457.7,198,456.6,198z M276.1,194.2h178.6v-18.5c0-4.1-3.4-7.5-7.5-7.5H283.6&#10;&#9;&#9;c-4.1,0-7.5,3.4-7.5,7.5V194.2z"/>
	<polygon class="st0_fast-food-59 targetColor" points="422.4,389.7 308.5,389.7 285.4,196.1 445.5,196.1 &#9;" style="fill: rgb(247, 204, 81);"/>
	<path class="st1_fast-food-59" d="M422.4,391.5h-114c-1,0-1.8-0.7-1.9-1.7l-23.1-193.6c-0.1-1,0.6-2,1.6-2.1c0.1,0,0.1,0,0.2,0h160.1&#10;&#9;&#9;c1,0,1.9,0.9,1.9,1.9c0,0.1,0,0.1,0,0.2l-23.1,193.6C424.2,390.8,423.4,391.5,422.4,391.5z M310.1,387.8h110.6L443.4,198H287.5&#10;&#9;&#9;L310.1,387.8z"/>
	<path class="st6_fast-food-59" d="M300.5,152.5h130c2.3,0,4.1,1.9,4.1,4.1v0v9.7l0,0H296.3l0,0v-9.7C296.3,154.3,298.2,152.5,300.5,152.5&#10;&#9;&#9;L300.5,152.5z"/>
	<path class="st1_fast-food-59" d="M434.6,168.2H296.3c-1,0-1.9-0.8-1.9-1.9c0,0,0,0,0,0v-6c0-5.3,4.3-9.7,9.7-9.7h122.7c5.3,0,9.7,4.3,9.7,9.7v6&#10;&#9;&#9;C436.5,167.3,435.6,168.2,434.6,168.2z M298.2,164.4h134.5v-4.1c0-3.3-2.6-5.9-5.9-5.9H304.1c-3.3,0-5.9,2.7-5.9,5.9L298.2,164.4z"/>
	<circle class="st6_fast-food-59" cx="365.5" cy="277.4" r="39.8"/>
	<path class="st1_fast-food-59" d="M365.5,319c-23,0-41.6-18.6-41.7-41.6c0-23,18.6-41.7,41.6-41.7c23,0,41.7,18.6,41.7,41.6c0,0,0,0,0,0&#10;&#9;&#9;C407.1,300.3,388.4,319,365.5,319z M365.5,239.5c-20.9,0-37.9,17-37.9,37.9s17,37.9,37.9,37.9s37.9-17,37.9-37.9c0,0,0,0,0,0&#10;&#9;&#9;C403.3,256.5,386.3,239.5,365.5,239.5L365.5,239.5z"/>
</g>
</svg>